<mxfile host="65bd71144e">
    <diagram id="NHSgF8TqYDuy3k6aTEIK" name="Page-1">
        <mxGraphModel dx="398" dy="1057" grid="1" gridSize="10" guides="1" tooltips="1" connect="1" arrows="1" fold="1" page="1" pageScale="1" pageWidth="827" pageHeight="1169" math="0" shadow="0">
            <root>
                <mxCell id="0"/>
                <mxCell id="1" parent="0"/>
                <mxCell id="5dTdVRmjxpNJlTzWFRYr-1" value="&lt;span style=&quot;font-size: 30px&quot;&gt;&lt;b&gt;Sharing Data Within The Same Environment&lt;/b&gt;&lt;br style=&quot;font-size: 30px&quot;&gt;&lt;/span&gt;" style="rounded=0;whiteSpace=wrap;html=1;verticalAlign=top;fontSize=30;fontFamily=Tahoma;fontStyle=0;dashed=1;" parent="1" vertex="1">
                    <mxGeometry x="40" y="80" width="1280.231716147719" height="650" as="geometry"/>
                </mxCell>
                <mxCell id="5dTdVRmjxpNJlTzWFRYr-2" value="" style="shape=image;verticalLabelPosition=bottom;verticalAlign=top;imageAspect=0;aspect=fixed;image=data:image/png,iVBORw0KGgoAAAANSUhEUgAAAggAAAHqCAYAAABhmLZ3AAAgAElEQVR4XuxdB3hU1dZdmWTSeycJvXcEBCkiogIiCCIqYseCiuWJYkdQLKjYHor+2NvDLmJDUFFRkC4gvdcEkpDeJu3/1s2dZGYyk8kk02fv7+Uh5N5z9l7nlnX32cUPIoKAICAICAKCgCAgCJgg4CeICAKCgCAgCAgCgoAgYIqAEAS5JgQBQUAQEAQEAUGgHgJCEOSiEAQEAUFAEBAEBAEhCHINCAKCgCAgCAgCgoB1BMSDYB0jOUIQEAQEAUFAEPA5BIQg+NySi8GCgCAgCAgCgoB1BIQgWMdIjhAEBAFBQBAQBHwOASEIPrfkYrAgIAgIAoKAIGAdASEI1jGSIwQBQUAQEAQEAZ9DQAiCzy25GCwICAKCgCAgCFhHQAiCdYzkCEFAEBAEBAFBwOcQEILgc0suBgsCgoAgIAgIAtYREIJgHSM5QhAQBAQBQUAQ8DkEhCD43JKLwYKAICAICAKCgHUEhCBYx0iOEAQEAUFAEBAEfA4BIQg+t+RisCAgCAgCgoAgYB0BIQjWMZIjBAFBQBAQBAQBn0NACILPLbkYLAgIAoKAICAIWEdACIJ1jOQIQUAQEAQEAUHA5xAQguBzSy4GCwKCgCAgCAgC1hEQgmAdIzlCEBAEBAFBQBDwOQSEIPjckovBgoAgIAgIAoKAdQSEIFjHSI4QBAQBQUAQEAR8DgEhCD635GKwICAICAKCgCBgHQEhCNYxkiMEAUFAEBAEBAGfQ0AIgs8tuRgsCAgCgoAgIAhYR0AIgnWM5AhBQBAQBAQBQcDnEBCC4HNLLgYLAoKAICAICALWERCCYB0jOUIQEAQEAUFAEPA5BIQg+NySi8GCgCAgCAgCgoB1BIQgWMdIjhAEBAFBQBAQBHwOASEIPrfkYrAgIAgIAoKAIGAdASEI1jGSIwQBQUAQEAQEAZ9DQAiCzy25GCwICAKCgCAgCFhHQAiCdYzkCEFAEBAEBAFBwOcQEILgc0suBgsCgoAgIAgIAtYREIJgHSM5QhAQBAQBQUAQ8DkEhCD43JKLwYKAICAICAKCgHUEhCBYx0iOEAQEAUFAEBAEfA4BIQg+t+RisCAgCAgCgoAgYB0BIQjWMZIjBAFPRMAfAO/vKvXHE20QnQUBQcCFCAhBcCH4MrUgYCcEIgAkAgg2GC8BgBZAHoAi9d/538fsNKcMIwgIAl6OgBAEL19gMc9rESAZSANAIjAYwC0AOlmx9mcADwM4DuCE1yIjhgkCgoBdEBCCYBcYZRBBwGkIBAFoA+AsANcCGGHjzCUAPgKwAMA2G8+VwwUBQcCHEBCC4EOLLaZ6PAJxAC4GMBHA2GZYUwHgTwB3ANjejHHkVEFAEPBiBIQgePHiimleg0CAun0wBcCDABiA2FwpBvApgOkA6FUQEQQEAUHACAEhCHJBCALujQADDccBuEr1HNhT2wMAHgHwiT0HlbEEAUHAOxAQguAd6yhWeCcCGjX48D8AOjvIxO8BTAZQ6KDxZVhBQBDwUASEIHjowonaPoHANACPA0hyoLV7AcxStxscOI0MLQgIAp6GgBAET1sx0ddXEBgD4E0AKQ42mAGL7wAgGRERBAQBQaAWASEIcjEIAu6HAGsb/Aign5NUY9rjDQBIFkQEAUFAEFAQEIIgF4Ig4H4IfAbgUgCMQXCG/AaAcQ5bnDGZzCEICAKegYAQBM9YJ9HSdxB4EsC9JmWTHW09yy8/BeANR0/UzPFZPbILgI4qPjkAjgDYBUDXzLHldEFAEDBBQAiCXBKCgPsgEAZgHYCuTvbucWvhvyoxcR80ajQJAXClugXCKpLhAIgTvSvlag0HZmCwKRVJAoM6f3U3I0QfQcATERCC4ImrJjp7KwLcWhgPINAFBr4K4E4XzNvQlEMB0KNCwsS4DGvPq2q1GdUp9bwlbmaPqCMIeBQC1m44jzJGlBUEPBiBeAArAfRwkQ3uRhCGAfhAbUhla+VIEoVsAGvU0tQuglSmFQQ8GwEhCJ69fqK99yDgSu8BUXQngtAOwIvqy705zyhunfwCYLT3XCZiiSDgPASac/M5T0uZSRDwfgT+AHC2C810J4LArQXiYY/nE2MTvlO3blwIr0wtCHgeAva4AT3PatFYEHAvBK5Wswha2UEtvhANf+hutyZ8DjCD4R5rBzrh92lqwOQldpzrJID56o8dh5WhBAHvRkAIgnevr1jnGQgsVds323I/8sVfBoBdGfUFjvh31jJgK+eNAPaoQXskDJaEAZH6ao2H3ACuPgA2O0APYsxsCOIlIggIAo1AwJYHUiOGk0MEAUHARgR4D9IFztLK1oREgMF3TOvLV4MaWSZ5u7UTPej3fVVyY2+ViRvjGp6298AyniDgrQgIQfDWlRW7PAUBZi98CmCEBYX59Z8BgKl76epL7mdPMc5GPZmtMByAo+wjmbrRRp3kcEHAZxEQguCzSy+GuwkCUwA8AaC9iT7cQtgEIBfAWwA+cRN9HakGKyVepqY3OmKeLwHcBiDTEYPLmIKAtyEgBMHbVlTs8TQEWAhoOoBoVXESg1UA8gDcrsYQeJpNTdU3FMD1AF5r6gBWzmNZ5rkq4XLQFDKsIOA9CAhB8J61FEs8E4G3AVwDQAtgPYADAGYAOOGZ5jRLa5ZVvkptc92sgSyczCBOxiE87IjBZUxBwNsQEILgbSsq9ngaAosBjAOwAsBLAP724cZDJEkM1nRkieRX1M6VnnadiL6CgNMREILgdMhlQkHACIFZAKIAvOxj2wnmLgM2YBqkpmk66jIRguAoZGVcr0NACILXLakY5GEIdACQpQYjepjqDlHXUXUQ9MoKQXDIssmg3oiAEARvXFWxSRDwXASEIHju2onmXoaAEAQvW1AxRxDwcATiAExqpA08tieAMwG0BcAtCmsiHgRrCMnvBQEVASEIcikIAoKApyIQBiAVQGsAJAskCLEqwTjHglFCEDx1tUVvpyMgBMHpkMuEgoBFBLqprYnZzTDACk7laq+FH9XSxEWCq4IAUyU7A2gJgASCGSJXAGCVRmLGTJEHBCtBQBCwjoAQBOsYyRGCgKMQYFrfBPUFxi9gZjOwcVJCI9zlLMFcAOA4gNNqwyamSr6rlmR2lM6eNC5JFrtD0sPALYhL1TbSz3uSEaKrIOAqBIQguAp5mdeXEegO4A4AAwAkAkhSCyU1FxMSBRZYYnlmFgNaY9Dpsblje/r59CwQ6xK1r4Wn2yP6CwIOR0AIgsMhlgkEgVoEegG4V21IxCZNLC3sCKF3gY2d2NqYzYn+AtBQy2dH6CBjCgKCgIcjIATBwxdQ1PcIBLhtcDeAqQAiAQQ6UWt6FUgU6LVgi2gRQUAQEAQahYAQhEbBJAcJAk1CgPcXAw6/Vb0FjDmwKFFRUZh85RTMuO8+pCTRG25ZcvPysXzFL1j42gJs3MAWDlalEMD3ACZbPVIOEAQEAUEAgBAEuQwEAccgEAOAZZTvsTS8n58f+pzRFy++9DKGDhmEAH8G2jdN9u3bj5n3z8QP33+P8vJyVFezKaRZYYwCawfQsyAiCAgCgoBFBIQgyMUhCNgfgTYA1qpBcUajBwQEIDg4GJOnXIWHHnwQ7dryUPsJecH8F1/EawsWID39BHQ6nbnBMwE8CuADAKX2m11GEgQEAW9CQAiCN62m2OJqBFioh+l0+0wV8ff3R2RkJCZcMhEPP/IwOrRr53BdH5s9Bx9/9CEOHz6MyspK0/kYzf+lGhsh3gSHr4ZMIAh4HgJCEDxvzURj90SA8QW9AdQLCAgLC8OAgQMxffoduHTiJU7VvqqqCiPOOw+7d+9GRjoTG4yErGEZgJuldoJTl0UmEwQ8AgEhCB6xTKKkmyPArIQLAHyjVuxT1NVoNIiLi8OVV16J5557HkFBzkxeMEZs6Xc/YM5js7B58yZTKBms8B2AOwEcdnOcRT1BQBBwIgJCEJwItkzllQgwsvBidT8/XG+hVqtFj569MGXKFNx37wy3MDw3Lw/jxo7FunXrodOVGepEkvA1gPsB7HcLZUUJQUAQcDkCQhBcvgSigIcjcBGA9wCw8JEiJAejx4zBjBn3Yviws93KvJycHEy79TYs+/FHFBQYlUUgSfgMwCNCEtxqyUQZQcBlCAhBcBn0MrEXIDAawCK1MZBiDoMRr5wyBXOffAptWrFfUNOFb+xK/l+18j9o/GrykvlncyQzMxNzHn8CX37xOU6ePGk4FFMe3gbwDICjzZlDzhUEBAHPR6CZjxrPB0AsEASaiABjDhYC6GB4/vU3TMX8+fMRF8syCI2XiiqgpLIalVU1ZIDCP/nv/LOqGvD3qyEH/FMv/O8gfyBQ4wc/G+5mkoRXXvkvFr25CJmnThkqyhTIpwG842aVF+mhIdZkXQTXsNslK0VmADigdrhsPPBypCAgCFhEwIZHiqAoCAgCKgI9VHIw2DAo8YrJV2LhwoWIjYluFFA6koKKalRUA+WVQFFFNcpt7JhAghAaQJLgp5CHkAAg2N+vURXQTqSn44UXXsSiRf+HwgI2hqyVjQDuA/C7ylMaZY+dDwoGwN4VZ6ktnFuoWSKd1PoShgSBVSIZYLkNwD+qziQ6PwAwcpHYWUcZThDwagSEIHj18opxDkCA6YxPApimtmdWphg5ajRef+MNtGvDzsINS3FFNYorAJ1KCpRtBDsIb2Y9QQj2B8K1NaShITl46BDmzp2LD95/37RWAssyPwBgux1Us2UIsqvxarXHPgBIwtiJ0RYhonSLsMQ1gy5XqQ2rbBlDjhUEfB4BIQg+fwkIADYicA2AOQBqKx21SEnFZ599hiGDB4Hlky1JSQWQX16N0opqlFbWbSXYOH+jDtdqgLAAP2X7ITqoYY/Crl27MHv2bMUGE3lDJUPHGzVp8w6ix+A6AAMBjABgnWk1bj4WhNoAYCWAFQD+bNxpcpQgIAgIQZBrQBBoPALnAHhWfYnVnvXmW2/h2muvRaDWfC8megpyddXKdkJJvYKGjZ+8KUcGqEQhKpBbEZZv961bt+KRRx/Fd9/yo7tWsgFMAfAL4yWbMn8jzzkDAHNBhwNIa+Q5th5WBGArgMUAPldjFmwdQ44XBHwKASEIPrXcYmwzEGAZ5SfU5kuh+nHmPfss7pg+HayWaCoMLGRcQU4ZvQaAjeEFzVC1/qnccmCcQnKI+WDGysoqLP32W8yaNQvb/+VWfq2sAXC9A4P/Xle3E4ZYMrhLly64YvJkdO3aFZoGPDS68gp8/vnn+GYJSzpYFDarYp8MekeW2xVkGUwQ8DIEhCB42YKKOQ5D4GoAjxtuLUy6fDJeevEFpKWm1JuUcQUni7mVUA0GI7qD8GZnXEJMkHlvAgspPTZrlhJoadK7YTaAVwDk2dEOMirWjxgLgNsLRpKamobrb7gBQ4cMRkxMDDp27Kj82dAWTmVVFfbv24cDBw6gsLAQi958EyuWm+UAFSrheUitIukmK2RHdGUoQcAOCAhBsAOIMoTXI8AIegYm3mDYIv3bb7/D6NGjwA6NhsJUxaNFVShzcJxBU1DnDR+oBjAmBNe//dnYaca99+KrL9nHqVaYCcCKT3ubMqeZc7oAeIGxnSbpikhMTMQ9M2Zg5AUXoHXr1kqp6qZIRUUFGIC5e9dufPTxx/j0E+4s1BOmRc4D8KmbpXQ2xWQ5RxCwOwJCEOwOqQzohQjcosYe1OYvsobA1Kk3IDy8trqyYnZZZTWOF7mP18DSWjC7IVLrh+TQ+o+Ajxd/gsdnz8bevXsMT2cE460Acpq5vkPVQkxMX6xlVqw+edHYcXj6qSeRmpqqdL60h5AosObD8uUr8ORTT2GfsU2cgtkO89UCUdLV0h6gyxheg4AQBK9ZSjHEQQh0VmMPLteP371HL7zz9lsYMOBMoymZvniiuFopbuQJwu38KK0fkkziEoqLi3HjjTfik08+MTSjVC1U1JyMBsYZ0HPQz5AcBAYGYuXvq9CpQzvEx9dWrLYrhKWlpTh67BgWvrYQL7/8kunY3DpZAOBlAAzMFBEEBAFDd6mgIQgIAmYRuAnAa/TM63/7/vsfYMqUK422FvJ01ThVUl1TGtmDhF8IUYH1ScLmLVtw+2234e81jFGsld/UmAFmBNgqLHr0qlrXgA2uFAkLC8fhw4eU+AJ2v3SkVFdXo6SkBE8++SSeeYbVpI2EBIjFoRgX0RT7HKm6jC0IuAQB8SC4BHaZ1EMQYNU+Zi5codd3wsRL8fRTT6FrFzoWaoTk4GRJtVIO2VMlJsgPicF1GQ58mU6cOBFLliwxNIkWssyxrcGKdAuwdDMDEmufOalpLbF7106zGSCOxJEBmHPnPonnn38O9JYYCIMXmcr6N6tbO1IHGVsQ8AQEhCB4wiqJjq5CgJkLH+on5xfu22+/jeuvZ9ZfjbDo0bGimnLJni6xQX5I4HaDasjx9AxcNulSrFm92tA05hBeakMJZnpe3gRwrX4QZiJ07tIVf69ZjaioqCbBpoe7OQ+wp5+ehxdemI/Tp+vtKrRRSzc3STc5SRDwFgSac395CwZihyBgDgG+ue5QsxeU3188YSKefHIuenbvpvydfROOFla5TRqjPZYxPtgPcfQkqIONHz8e33//vWnaI+tAsEKhNWH64osAbjMkB506d8Gvv/yMlJT66aGmA1ZXG3/Kl1fVVKFknIfSwEoDBGnU/hOq0rZ0vHzwwYeUtE6T1tf0JJAkNCfewho28ntBwO0REILg9kskCroIgQsBfAFAKYrENs4vv/wy7riDnAGKx+BYYZXysvImYRQAvQj68sxbt/2LyZOvwM4dOwzNnKlG/jdkOodi9sdjAJgmqki7du2wbNkypa6BJVHaXFex1XU1CstrqlDa0sSKzatIdLSaml4Uht0vzc15yy234MMPPwQDGQ2E1aJY4dHLVtibrlaxxdEICEFwNMIyviciEKSWGOa+uSLde/TAs88+h4vGXKiQgxNFVUrDJW8UVl1MDPGrLc08atQo/PLLL6ZeBGvPDjKApwBcpseIdQ0Y09CnD3sw1Rd6C1hUSldZjczS5qeKMksjQgvEBWkUksCy0+bnrcbUqVPx6aefKkGMBnK+WmbaG5dZbBIErCJg7Sa3OoAcIAh4IQI91X1zNg5SZM6cOXj00Ueh8fdHZkm18lXryUGJ1tYsOgiID9IoL9WPF3+Ke+/5D06ezDA8rYPaKdHcUKwX8YiaFaD8PjY2Dh9+9BFGjbxA8caYCotKsYZEekk1SBTsKXzIhWnpVdCA7SjMEYWCwiJcOnEiVq78FaydoAo16Q5gpz31kbEEAU9BQAiCp6yU6OlMBM4F8Kt+woSEBKXIzi033wzWOmA6o7dtLZgDl5UWudWgQTV69OiBHcbbDOzqdLGZ8/hMmaDWO2ir//2tt92ORx5+GGlpqUankGTpMXV0SWp6ESID/RAd6KdUkzR9+H319RIltdOECP0FgMWdRAQBn0NACILPLbkYbAUBlkZk22Hm7Csy+copmDdvHlqktVT6K7ABky8IX6gtQv0QpvXD5CsmY8mSr6HT6fSmFwKIMINDSwCPqvEHyq/79euHBQsWYNCgQUaH67tbknA5UxijQOIT6u9Xz5swffodeOedtw3jEZgHeYk0dnLmCslc7oKAEAR3WQnRw10Q6AqAyf+sgaDIzJn349lnn0VWWU1nRm/eWjBdhMhAIDFYg61b/sHoUaOQmcnKxIpws55f1psMzmHpZLaHXgSAcRyIiIjE66+/rhSWMmy0VFBejexS13liuM3AUtOs/6A1iE0oLS1Dv/79lKBM1oJQ0znZg4LXhdRGcJe7VPRwCgJCEJwCs0ziQQj0B7Ber29qWhoee+wxXH3DTUrsQYkPxrSzFDOrLbZu1RLHjh3TQ0MklgKYaLC2JFVPq3USlH9msaW5c+eiW7ea1FBKvlp10tWOGD78uOVQk/FQZ8Ub/7cI/7n7LpSVlen/MVdNef3Yg65jUVUQaDYCQhCaDaEM4EUIsKgP98/Z3a/mBXfppXj+xZcRGp+C3FrvuhdZ3AhTAjVAy3ANrrhsEpYu/QaVdUF86QD0xQwYeUhXPLFTXrds2Tx//vOYPHly7SysOkmi5WpyYGg2SQLjLQxJwqjRF2L5T8v0h9GVsBWA+fSLRmAohwgCnoiAEARPXDXR2VEIJKvu8XH6CW699VY8+8pryCqtScHzVWHxpJ2b1mLMyPNRVFTbqoD7DXxpkii0UzteTtJjxIqTjz/xBFq1ZFhCTT2DrFL3bGZFksBS0/oMh9V/r8WQQWw4WSuZAB4A8K6vXgNit+8hIATB99ZcLLaMAHP3uaeu9HBml8Fpt9+Bh556Hnk+6j3QQ8WAxZah1UhOiENeXm0rhgIAD6sBncPUQD4l9iAhMVFpisTMDz05YMyBLQWPnH2hRrCzZaifkgpJOXvYcPy56ne9GqSHf6q9GpytmswnCLgEASEILoFdJnVTBNiBaZdet569euHBOU9hwIgxbuUSdxV2TA/s3CIG+fm1BIFxCEwDZBwCOyE+qNdt8uQrMW/eM2BxJG4r0HPgzuRArzcDF5NDayowrlmzFoMHG3kRDgO4G8A3rloDmVcQcCYCQhCcibbM5c4IcA99OICf9UpefMmleG7h26gONpfN586mOEY3vjQfv+tGLP7wfX2EPyfaowYlLteXVA4ODsaDDz6I2bNng6mMp0qrUeIhVSf5QOR2Cn+qq6pMizrRj8RmVXVBFY6BWkYVBNwCASEIbrEMooQbIBAJYCGAq/S6jL/8Kjy/6ANUOjdN3w2gsKzCtnV/4YrR5xgShP0AphkSqwvHjMH8+S+gS5cuiufA06pOcjulTURNL4f33n8fNxh071RLL4+SHg1ufZmKcnZCQAiCnYCUYTwegUQAbNDDPxUZd/lVeO7/PvB4w+xpgK6sFGekRKCqqjZik4WE/gUwQD/PLdOmYeFrC5Ff4acQBE8kWEH+QNsIDbKyssBKmgbCwMwXADxnT1xlLEHAHREQguCOqyI6uQIBdhxkkr+SohceHo4rb7wVM+Y86wpd3HrO7nFaQ4JA/wrZgtJgISEhEfc/8ACm3XWPks7oyZkfYQFADIpx5oCzsGvndv2a0NYvAVzu1oskygkCdkBACIIdQJQhvAIBEoQTekvad+6C++bMw/DRtRmPXmGkPYwwIQhGQ46fcAnefOttIDQa2WWevTfDh2Pb8Gr8vWYNzhl2tqGdjEMwLBBlD1hlDEHA7RAQguB2SyIKuQgBI4IwYOg5eO6N95GUWpPDL1KHwHk9WuPE8dqKikbQTJkyBa+98xFOsiujF4DGughBecfRqlUrQ2toPCtGvu4FJooJgoBFBIQgyMUhCNRsK7C182o9GMMuuBALPvwCgUHBgo8JAk/cMw2L33urHi7BISG4bupNeOzZl5Ff7h2w8QGpyz6GXh1aGxrEbYb3AUz1DivFCkHAPAJCEOTKEAQAllh+BsAMPRgjLhyH1/7Hnk0ipgh89+lHmHkrG14aS99+/fDkCwvQtje5lvdIZXkZ/v7hC9x0/bWGRjF6tT4I3mO2WCII1GuJLpAIAr6IQAiA3wwj8YUgWL4M9u/8F2MH9653wMgx47DokyVe19CKX1FH9/yLCwYa2fyJ6kFgV0sRQcArERAPglcuqxhlIwKhAHYAqPUjC0GwjGD+6WwMbF+bDVp7oDdjdmDPTlw0sIchKIcAPCG9GWy80+Rwj0JACIJHLZco6yAEwgBk6HswcA5vftnZA8OuMUpWY634BwRg9PhLMf+t/9ljeLcb4+De3ZgwtA90utqmHPyPVwDc73bKikKCgJ0QEIJgJyBlGI9GgM2Z2HjIJ76G7bFSpgQhMSkZ02Y8iCm33GmP4d1ujIzjRzHzpinY8HdtHCt1fBWAdxrsdisgCrkCASEIrkBd5nQ3BLyeIBTk5aKiXIfo2Hj4aZRaUM0SU4LQtUdvzFv4Djr1ZPdn26W6uhoFeTmorgYio2Pg5+dej6bSkmJ8++mHeOye2w2NE4Jg+1LLGR6EgHvdhR4EnKjqVQh4LUHYt3M79uz8F0f270VJUSHad+2OmLgEnH3+6GYtoClB6D/obLz55Q8IDmE4h22ydcNaHNq/F8cP7VcqNLbq0BmpLVuh71lDbRvIgUdXVVZi3Z+/4YYJIw1n+T8AdzET0oFTy9CCgMsQEILgMuhlYjdCwCsJws4tm7Doxaex4vulqKxkZ2YoX+bJKWl4eN7LOH/shCYvgSlBGHj2cLy39Bebx9u4+g+89MTD2Lh2Te25Go0GXXv2wb2Pz8Ogc86zeUxHnbBlw1pMvmCw4fDfqm2u2dFSRBDwOgSEIHjdkopBTUDAKwkC98x/Wvo1ysvrf+C279QF89/6GF2auCVgD4JQVVWJa0YPw6b1f5tdMpKO2fNfRdtOXZuwpPY/Zdum9bj8vLMMB94L4DEATHkUEQS8DgEhCF63pGJQExDwOoKw+98tuG3yeKQfP2oWjtCwcEycch0eee6/TYALsAdB2LRmFa4ddz4qKyvM6hAdE4sb7rgHt8x4uEk62vskMwSBNRB+B0BPwq8A6EmobXNp7/llPEHA2QgIQXA24jKfOyHAiLopAFgo6Q5DxTw9zfGtl+Zh0SvPoSAvzyLedN+/s2R5k9bDHgThyfumY/G7iww7Q9bT5bJrb8ITr3Cr3/VihiDolcpSy3QfBLAfAJs5HQe8oh2F64EXDVyGgBAEl0EvE7sIgQQANwFoA6ADgHP0rYq9iSC8MPt+LH77/1BUVGh3glCQm4MBbeONxm1KDMLMqZPx/ZIvwAwGS+IhBMFQ/ZMqWcgG8CeAzwBItUUX3ewybfMQEILQPPzkbM9BgGH74wGkARgEIJYxe5bU93QPwqrl3+ORu25B5knWf6ovDAQ8Z+SFWLh4qc0ruHvbZkwY1r/ZBOHHL/6HmbdeXxtAaapIQEAArrhhGh5t4jaIzYZZOaEBD4KlMw8A+EclCKvKU84AACAASURBVHMB7La3TjKeIOBIBIQgOBJdGdvVCESq9fIZCt8OQHsAQY1RytMJQnFhAS4Z1g9HDtLjXV9atW2HOS++jkHDz28MHEbHfPH+m5j1n1tr/y0wMBAjx03E8299bNNYhfl5GNQ+CRUV5ls/njFgEB5+5iX06HumTeM66uAmEAS9KnSRMBKTWxGfA/jQUTrKuIKAPREQgmBPNGUsd0GA2wfcRiAxaAuAjQNsutaHnT8ar3zweZPy+t0FhA2r/8AdV1+KvJzTRiqFhUfgyutvxl2znoI2kI0sbZNZd9yILz5+r/YktnkeN2kynvhv/RbQ1kZeteIH3HL5uHqHxScmYer0e3Dt7feAZZzdQZpBEAyJAqNGydpYkvFRd7BLdBAELCFg00NTYBQE3ByBjgDuAXAugBYAopqq75mDh2He6+8gpRX5hWcK0wj3796F2XfdjM0b1ipGMDOAFQ979huI2IT6DZcaY+lZbeORl5tTeyi3Kwafez7e/OLHxpxudAwzGLZv3oiHbrsOB/btVeo0dOjSDQ899QK69emHqBjuBLmHmCMIybGRCvXMyM63RUl6FHgCtyBIFB4BYDma1JaR5VhBwI4ICEGwI5gylMsQaAXgSQDDAcQBsKmc38zx/RAdEYZHPvqj1oB2HTvj3tlPY8RFTS8m5DI0TCbOzEgHSwVTNP7+SGqRigCttsnqdY/T1ss8aEqQol4BBimePHEc5boyxdETGBSEuMREBAQ0XccmG9fAieYIwlVntcLUwa2Rr6vCV1sysXTTEeQVldoyPReGgY0MBuE1zG0IEUHALRAQguAWy+CRSlwNYL7qul8E4GUAjNx2psQAYCL/hQAiADTaXz66VxruPa8NQrQahAVrkVNcjhHz6wiCv78/Jlx5LZ5cYLvb3JkAuGIuexMEV9jQlDnNEYSbz26De87voOQzlpZXobS8EscKgYc+34wDp2zyKpBVsGEY+zu8AKCoKTo28xy6lD4F0A1AJoCF6k8zh5XTPRUBIQieunKu1fsyNdBKH/DHSjckCy+qDxZHa8fr9nkA0wHwM9O497CF2SPCw/DUxF44q2UIgvz9oPWvu/wzC8pwzvxVRmeOu/wqPPd/HzjaFo8bXwhC3ZLpCYLhIpIslFdUoaoa+L8/j+LdVfuhq2x0/STeSyx9yS6RDPRo9InNvJC4HfcvgBQ6mtQaDjsAzFLrOjRzeDndExEQguCJq+Z6na8E8D8zajCVi1/0jnKTMlqNqYpfNAYCNgTU+Pmhb7tEPHBBe3RLtrzzIAShMYgCm1f/gavGjqhXu6A5WwyNm9n1RzXkQbCm3e5cP0x65WflsEoyh8YJo0svB/AbT2vcKU06ikT/iBrMazrAu2omUJMGlpM8GwEhCJ69fq7SfrJKEMxdP48DeE0lCY1+EloxJAwACxwxVSzJmtEB/hoEazU4r0dLTDu7NdpEW4+CP1VQhhEv/okqg4f3BWMn4MkFbyIy2n0C5azZ7ujf33PtJCz7bgmUvswG4gsEYevGdbjifJbQqJGgQC1uPrstpg1tqRDRxnSoziyqwG2f78WREydRUl6FyqpGOQiWqU2h2PvB3p0j6TlgiWhzEavMP31T9dQ5+tKS8d0QASEIbrgoHqASk+dfV2sL0B1pKrMBvKFuNzSHJPDLhm9n1todZS3GIDDAH9GhWgzrnIRbh7dDSnjDOw9V1dWoqKxWvoaP5pTi/qX7sOsot15rpGPX7vjPo3MxYgydFiJEYEDrWBTk1w+4HzB0ON77ZgX8NOYuB8/HjtfI5rWrcdWFw2qNCQnUYmyvREzsnYTU2DBEBAcoRCFAo7FKFo7m6TBvxSFsPXgS+SXlKG/cFsRtAH4CcMhOZZyZ6bNOLR5mukiMGP1S3eowzpP1/OUUCxqJgBCERgLlQ4exLwEDpqy92MeowVRMLTT3JmaXO77Y+ca1NpY5eFPVOgYkGyxyZFECAzRIjgpB/zaxuOuCTkgMsXxZ88NXV1EJkoOCkgoczCpQ/rui2g8bT1Vj0fKtRvNMnnorZr9Ah4gIswwGd0xGYX794Ls+Z56FVz/6EnGJyV4JFDti/r7sO9x5LcNvaiQmLAgX907GsPZ12bThQVqkxoYiWOsPrUaDgABNgwU4dp0qwcJVR7D9cBYyi3SoqLC6k8Cyzew5zXoKzQkKZv4uyQbLjZveMCQH3wOYAeCwlQVlYLASduGVC+/jRglB8PELwMT8XgBYQ5euTKZfbbQCDz+tnwLQpQGSoPckNBZpVj9k2uI8NTvB4iepv8YPLePC0a1FBO66oAtaRVr+euUXmq6CP5U4droIRWUV9VhLRn4ZHvnGuBru5dffjNnzX1PSA31d1q9aiWmTx6OkuH6Afet27fHg3Ocx3Eu9LXmns7Hw2cfxwaI6sti7bTIuOzMVLYLMvxvjw4ORGBUMfz8/hAYGQKOx/Lhdf7QIH6w9im2HM3Eqn+9nq/ISgI8AbLJ6ZP0D2D+b2Qrd1YBEwyP4cfBDI8gBg4M7AeBY3PY4BWC9g2MlmmCqnNIcBIQgNAc97zqXxIBlYFmFkMJKOPxcYi35hr5UJgKYo6ZGmXuL0gPAdKnGBC7yq+ZSADeqpMMiwolRIeidGonrzumCvsnm8+XpLWDaGUlBbrEOmQWlDbpyT+aX4dFv9xrl+J8/5mI8+PQLSG3doBPDu64EC9bcOWU8Vi7/0WzvBFZnvOzaG/HAU8zQ8z45fGAfrho1BNlZdZfxsM6JmHJmKrR+DX/1c9uhTXy44lXgT5DWPNnk9brkn3R8syUdB7KKkFVglSjQ9c/7b6f6gm4M8L0BvA3gDDPkgBOydfV/1G6UlsbjfcqPiafV+57HkSWxzwmJgoiXICAEwUsW0g5msAjAUBN3I1Ou+BBg/l9NCLZ5maRWg+sBwFxE4BMAFjRAEhiESC8EqyAyQ6LBjezzuyZiYMdkXNXPfCVARomX6CoUcsDshLziskbtcWQXleOl344h/TTT0WskqUULTJ85C5fdMM0OEHvuEFVVVRjRs41S0MiSeHr/ioZW58CenbhoIC/vOhnROQ5XDeBOWOOED9v4iGDEhgeB8TLhQeaDZ0sqgc/WH8PyHZnYk5GPorIGvffc72E8EF/sf1nRhB8BvA/Z3MKUpfBeZ5tq3oOWFpnbCSQYPGasWnvEcEreJKyJIuIlCAhB8JKFtIMZLPlaF6JtPCAfGHcDWAPghIW5+CXDkrH8sjD35ONWBFMgTb8w+IRluUJmRpCgWJQB7RPRItwfT17SHQYlDGqPJzEoLCtHUWkFTheVoaDUtm3R0opqrNyXhy/WM+OrTm64Ywbue3weNBrf3WbYvnm90jPhdFZdEKfpQnktQaiuxp4d/2L80D7NIgj6k5ntwFiFpKgQBAVoEBEcaDaocXe2Dj/8cxzfbjuJk7lFDbXFZioEaxbcC+B3AOZcD2cBeE69x03vT8YQsC01z7dEDridcLbq3bP0nGDcAomDiJcgIATBSxbSDmY8AOB+NWvA3HB0Z7L2AfcnLRXdJ0lgA5qeZkgC/bAsbsSKiywty2uvNYCZAK4x8zVSq0NMRCjO6RCN64Z2QKe4+g9TEoP8Eh0KVWJQrOPHUNPkUHYJ5v7AEIw6GTl2AmbMfgatO/AZ6ZvywC1XY9k3X0Kns5xld+YQ9q94DyktuazeIxXlOvz247e48zqWJKgRf40G53WNxxV9mxeUGRYUgISIYCVGITLEPFH47J9MbDmai5+2HoeVa5vpioxNWGnSWnqIWsaZBNwceed9zfvQHPkPBtBPTXVkV63wBlaWLdUZ+CjiJQgIQfCShbSDGXQfsjIhsw+iLYzHLw1+qbBq4i9qJLXpoZeoY5AkmH5yMwCKLk7GJHC/8mYA1zak+4iuSaDn4JJe8YgIMh6O2QeMLSgoKUdOURlKyq1GgFuF6WhuKeb/fBiFJXUfYXHxCUq646TrqK7vSWlxMS4d3h8H9tYFcLKpUlJUKDJy6wIWE5Nb4Oa778fVt97lVSDlns7GzJum4M+VdbtsJK1je6dgeFub2n5YxIXbDcyKIEmICNbW8yjk64BP1x3Gl1uzcPRkTkNbZiTyVJSuft6jJAWsTcL8THPkgKVCHwSQbkY5Bt6QFTFjid4DS7JL/Wh4yIL3wquuB18yRgiCL61242y9Ve2GyABFS9cHHyZ8+CxWPQqmI1+sfrGwprspSeAbhY1puLVQl1RuMkJUeChGdY3HNWe1RJu4kHpbCnnFOuQU6xSCwHgDe0lBWRW+25mDn7cZe1pv/s/9uH3mLASH2ueFYC99nTHO5+8twstPzsLp7LoAvQCNH8b2SsOSf5htVyPsXzH+imvw1GuMgfMeyThxDOd2N/aK9GgZg6sHtkJCSFMyeC1jQ3IQGaJFXHgw6F0wlZ/25GHLkVy8t8rYy2VmRNY3oKePL3b+mIvkZaMRBhibbiuw/gjjFO5QtwwYI2RJGP+wQn0OWI2q9J6rwjcsEYLgG+tsq5WdAbAYEkPS9f0WzI3BDId31AApFm8xFH510NPAsWyqnjOoQyIu6NECIzpGIzHc+LlWqqtEel4xCssqUGhjjEFjQKiGH7ZnFOGlFfuMDu/cvSfum/Mshp7Pek2+JTeMPx/r/vzdKLsjMTocV/aKxSt/GMdrjBp/KZ5Z+C5CQht6p3gOfiyQdGD3TowdRIdYnQxuF4Mbh7R0mCFR9CSEaJEYEVwv64HehCUbj+DVP4+jsLDBnk76IBxz5IA1ShiATIZnyHK4Z/IwgL4AuDVhSVgwZInqDeSWoYgXIiAEwQsX1Y4msWPjBVa2ATLUXGySAdaMN3zYjFS705krxmJWzdE9kjB1aDt0SgxFoEEkIh/Uh7MKlW0Eeg0cKfuzSvDq70eQX2z8QXT/3Odx3W13+1RNhNUrl2POjOk4euiAEeRXnNkKaSFVeOGPY0b/3qFzV2U75ryx3GnyfCkrLcETM27HV4vrmnZxe4UEYepg7pI5Tljngx4FZj2wpgL/rhfG3fyw8zRW7MzGz9uMSVojNOJXP+OBWARJX+uZnj4GMjIWgeS+oV7b3L5gHQXWPahL+WnExHKIZyEgBMGz1svZ2vL6YM4zP5sZ/NSQN2GzWkeBT1JDl+VwtfNjg09T7meP6ZWMy85IRps4Yzf+ybwS5JXokFOkU6oeOlrySyvx044sLNtu/GHUd8Ag3PfEczhjIAvZ+YY8cOu1WLbkC+jKjMnSrAvaKvUlPt+ehwOn6kovBwYG4qpb7gDJlDdIYUE+hnVJRUkx64bVSFiQFud3S8LFPZzToyMowB+hgf5oFR+uBDPqhW1DDp4uw2+7TuKF5YxPbJSw0hO7rtLjZ0gOuF3Ie52pkJaE3R5ZnInH2sxKGqWdHORWCAhBcKvlcFtlWH6ZngRmKVzXgJbMgePmKIMdt6jeBKZEcS+0rh6tyQD92sThpmHt0CM5FHFhdR8uJdxOyC1GTnGZ0j7X8dSgRjF+nW04lItFf9Xtr/PftVot5rz4Oi6Zcp3X9hwwXJp/1q3G7Htux54d24xWrFNyNKb0jFLaGe/NrcDiDcZb2GMnTcYj815BdFy8217QjVVs367tGDeImbt10i4uBFedmYI2Cc7dRmEgI4ssdUyKMgpiLCyrxDdbM/DyyiMoKmpwy4FGXAhguQE5YBwQWzqPsLIVyEwHfiTw/q7fjKOxgMpxHoWAEASPWi6XKksXJPcnWemQe5cNPR1Z2Y0tmfnmYIMZPmHNXmsD28bisXFd0TImBAEGkQosh5xdWKYUO3KG18AU2cOny7B440nszcg1+lWPPn3x6HML0PtMemO9W2b/Zxq++fQjlJUy+aRO7j67JWKCaxYrq7gCr/5lTBASkpJx+8xHMflGLr3nCre1xg/pg707+eFcJ10SQ3HjWamIjSJvdq6whgI9GC1jwxAdysSjGinWVeH3fTl456/D2H6swd5KzELi/g9dDowhYCAx+6lYEqaucEviKwtZS84FQGZzKgJCEJwKt1dMxjxovvBZDnlqAxbxK4PBAnHmvkwCAgIwpFMSZo9ui+QoplrXCDMSTuQW43RhGSoMWi87GzkGQK7YnonvdhhXiPYPCMC8he/iwomXw9/fehtpZ+ttr/l++f5rvPjEoziwhxlsdRIRGoIZQxJr2V5+WRUW7yhAelYdkeIe/U13z1RqR3iyVJSXo2di3bVJW9hKvE9KOK44I8klBEGPJxuUhWgD0C21LiOZvUYO5pZj8foT+Ozv/Q1Bz1+S9bGwR0OxBsxOIMvjXluhJ6+l6N40BIQgNA03Xz+Ln49sqsSUSEY8R9gCSFiwFhP6tcb0s9MQHVL3kmWswfGcIpRXVrvEa2BoQ0lZOdYdyMMPu3OQVcAGenUSHRuH/37wBVgYyBuFZZXnzLgNX338HiorjFNIpw1piRahda6eymo/7MmpwKcbjYMV26vBiud7cLDi9Csuxq/LWRywTlrFBGNy70QkRAa5lCBQIz68Q4MC0CY+QkmNpJBTc8vhvb8O4Y0/Djb18uTeGmsnfNPIHipNnUfOc3MEhCC4+QK5uXoMWmRg01wA7MdgVaLDgvDIJf1xftsgpcwshZ0WGWuQnlvicmKgN6BUV4HMnGL8fTgfy3bXd9neN+cZXHHDNIRHWgytsIqFux6w6IWn8faCF5CfZ7y9whiMe4e2QHCA8WPjRL4Oi9Ya19nRaDS46+EnMO1e1s7xPKmuqlK8B5WVxsW32sUG47r+SQgLCURMpPO3GMwhGaDRICYsEB2SyNlrhN6E1347gDdXmWYfN7gWDPNh+uI5ajdX22qVe94yi8ZWEBCCIJeIPRBgfAK7NrJfQ91TymRkpmwtvm0o2kb717moS3Q4cKrALlUQ7WGIfoyKyirkFZRi07FCLNuTg9wi4yh+vgA//vEP9BlgqSy9PbVx3lgnTxzFs4/chx+XMITEWG47uw0Sg1kpwljydVVYsb8Q246xAWid1NSOmIeh57MCr2fJAzdNwdIvmclXJ/R8DeuYiMEpWkSEBSk/7iQkCZ2TGcBYs0KM3Xn+p714f02jEg4Y3ci0ZjZ9an5JUncCRnRpMgJCEJoMnUedyE91tqJjMxa2eaXvkZ8W+h/9361VQuMXBlOj+KfhD8fn2PxJMIcMI7CXzxiGaDW4jdmKucVl2JXuvgHRxSXlyM4rxurD+VixNwemGZbJLVLw9pLlaNepq0ddDJaU5XbCi088gncWsKSFsQQHBWL6wMR65a71Rx3KKcV7G+rXy5n5xHO4/vb/eFTtiNKSYgzpmIxik4yA1Kgg3DwgGcGBAYiNDlH6MbibMA2SAYws26zyBPz3j+P4aM0hFBWXWMoE4j4Stwn10ah8L9A4/mnux5LZjJpkYTR6FVl6kn8yzoFtV9lEin1ajN1S7gag6GOEgBAE37ggBqgVz9h0panCgEN+irC4Cn/43/q/c3y2em1jbnB+2ay8dxgC1aLLdH9mFpTiSLZ7xz3pCcL+3Ar8vC8X6Tn1U8juf3weJt94O0LCnJvy1tRFtHReRUUFPl60AAuemYOiQuN10fj54eZBqUgOq/P8mI5zoqACn/+bg5zCunoBPIZ9LGbNfxUjL7609svW3rrbczzGX1w1cjC2bNpg1D2RwYndksMxsVsMQoK1iI9235LbJAbJUSFoFRsOjVpc6Z0NWfjwzwM4lVtgqSskmbo+aJEvd/60Un8M/27RQ9iIdWDHSAY2W83FbMRYcogTEBCC4ASQ3WCK8WpKk9NVSYkOwdI7BiFUq1G+XorLKnAosxD5pY6thmgPQxmoeDqvBFVV1fjzcAF+35+rxEuYyrtfL8eAs4d71FeyoQ3V1VXY/PdfeHnuLKxfs6qefa3iwnFp92hEmTTLMjywCn7YmVmCz/+p70W49b6Hcf3t9yAqxjmFhZqz9ru2/YMbJowEGzQZSmJ4IG4f1EL5J3cnCHq9SRLoTfD31yhugE+2nMa7f+zD8ewCV8X6MP2ZNRe+bM4aybnOQ0AIgvOwduVMF6lVDp0aVdUuIQwfTO2P2NCaCOv8knLsPJHrqoeTzfgzDiG/sBRFJeXIq/DHij2nsf1EntkvsMXL/0Tv/md5xFeyKRAnTxzD/734DBa//UY9jNgw6JozEpEcYT4bjuV/WViKcii3DEu2nzZbCnvW8wsw8aobEBzi1EvQpjU/lX4cV485B0cPGUf/08buLSIU7wElNFiLODf2IBgazVbSLaJDERLoD3qCFv9zGm//sQ/ppy16EmzCzMaDN6gt5dmOWsQDEBCC4AGLZAcVuwN4CgB7IzjlCd0lOQKvXdUHLSJrArlYKnnHcc/bfixk18j8mjTHDceL8ceBXOSbaRIVn5CANz77Ht37NGcXxw4rbeMQOdlZeO+1F7HopWfrnclgt3M7JWJAajCCTXtycpNa44eo8OBafOhF2JJRgm+3Zxo1duLA7Tt1wZyXXkffs4aCAZ7uJrqyUqXnwvdffYbSUpO01hAt7hqaCvrAaHNEaBAiw90rQLEhPBkc3CI6BNGhQUo/h0XrsvC/1fuRmVtoabvBEcvDng0suPQIAPu1X3WEpjJmLQJCEHznYmBw4u0AUkxMZmARN1T5Q/Kg/2/9321GqEdqFJ69tIfSppnu+fwSnVsHIzZkYFGJDrn5pbVej5UHCvD3kTyUldcP9G7boRNeevcTdO7R22bMXHFCzulsfPD6K3hjPrljfUmLCcG4LjFIMumoqT8yUOuP2KhQZGTV9es5ml+OZXtycTzHOBaB51x9y3RMu/dhxCeyIKf7CCsmrvxxKZ564D84ccw44p8v1P4to3Bhp5p01qDAACX+QL+37z5WNKyJ1l+DlOhQJEaxYqkf3lyXhddX/Aum8zZDGNTMhSaj4p+G/23MsgBW3GIfCOOuX82YXE51PAJCEByPsbvPwKAjRhknqRkI+v/mn+YyErgRy/7yZq+dHmnReOyiLujWIhx00WcV1gQjOqHHkkNwLq+oRF5BGRiPQMksBX7clY2DWUVmv74GDDkb98+dj+5nNNTzxiGq2jRobs5pvL/wZYvkIDYsCBd3i0Wb6LpyvoYTMBCO5IAkgQTBcH3pRVi2Owcluvpp9Hc9/DiunnYnItyofsSG1X8oHSv372YVYmNJjAzF7QPrbgNmMCTEemZAKm/YtNgwJEeHKiRhzrc78eWmE7VbRGYuINbQXtPAFz8DG0+pPww+YS8W/d+NS5DadHXKwe6CgBAEd1kJz9CDUWZ3AnjMXPnkDi1icP+ojhjYOhLlFRU4mVeKU/nuU/yoqRAXFJUht6CuH8GWjGKs3JeL3JL6L0C6z88cNBQ33fMAhp7nnvn/ebmn8c6CF7DoxXlmIQkM8MewDnHonxJidmuBJ3H7IS0pEpVVVcjOLUGZwZdoVkk1Vh7IU+I1zAnbQV9z610IDWPVbtfKuj9/wzMPz8CubewtVl8m9ElDn4S6/RVPCVBsCFWSBHoT6B2Z+/0uLF5nXAXT4FyCwvbPLLks4oMICEHwwUVvosn8lGQMA3vB14RzG0hcRAhuO68zLu4RB1RWKFURTxeVeUxAYkOYMN0xt7AUlQYZDOuPFeH3A7koLKvvoiVJaNehE257YBbGTJzcRLjtfxpd6VmnMvDeay8pBMG8+KFrcjhGtItEQpjlXhMhQVrEx4QqngN6V7JzjbcU9p0uwy97c5Geb9zoiXMGBQVh+gOP4brb70FgkOv28tf/9Tuef+wBbNu03iwUZ7aOwUWd6rL6mA0QExGsZDF4uqTGhCreBAYuzlu2Bx9YLqZEcB4AIIGFnr7oTdBfCEITQPPRU5gLzTD3ep/FgYGBmNQ/DTcOSkNoAJSyyXkl5V5BDrjWJAYkCCQKemFA3qrDRVhz8LTScdJU+IWdnJKK6Q/OxrjLpiAwyLjpjyuuoXV//IrvvvwEn3/wtsXp2cr4vA7RSI00v7WgPzEpLlzZXqDoyitx0qSmBXs0rDlahD8P5KC0vD6JCgkNw4133YfbZj7qkqBFeg7++9Rj2LxuTb2AStoUExGK289KhtagqCDtpd3eIikxoUqthGpU4/nl+/D+apY3MSt/AGDN7NXeYrvY0TgEhCA0DidfPyoeAD85rzUHxMieKbjr3HZICPPH0ewiFJR6DznQ25tfWIb8olKjvfaiCj+sPFiALUdzzNZH4LmJyS0w6ZobMXzUGPTsN9Bl19Fr8x7HX7/8hM0b1lrUoU1sCM7vEI20qIbJASsIpiTW9edirAnrRRhuM3CSzOJKrNiTgz2Z5uviBAYGYcpNt2Pm3Geh0ZhJk3AAWvSirPntFyx4Zja2blxnlhzwq/qS3i3QM8HYUxAcFICEGM+MP7AEJVMg28SHo1BXhTk/HsQPm8w2eGLRkv9Te64wzkDERxAQguAjC90MM/nJ9CKAm82NMbxzPO4+rwNSooJwIqcYuSU6JXPB24RfyezNYBr1nV1ajV8PFWHn8dMW7Q4LC0e3Pn1x8eVX46JLr0CIE/fe169aiWVLv8JXH72D0tL67n79OrWKCcF5HWPQKioQfpYK8qoHx0WFIlTtHsh/4jZDcalOIQmmcjS3DMv35oB/WpLJU6fh5rtnIqUVK/M6Tgrz8/DHih/w7msv4d/NGy1ONLJTLM5qFa643/XC7YXYqBClzLK3SVJUiNIRcmdWOe75bBuOnarfnEzNPmDnVlZD9L4b3NsW1U72CEGwE5BeOgwT1i8EwM499Xzkg9vH4Z4LOoBfnkxrY28FfdEcb8SD6Y4FxfVfdKdKgB/25OHwqdwGn5wpLVuj78DBGD1hEoaPGgv/AMe9bI4fPqi8CLes/xs7tm42+6WsX6O06BCc3ykWraK0Sq5/Q8J3ZmoiGwIZH0XvwanT5j0FB3PLsXz3abPxCByFMRtDR4zEgKHn4Ma773fIpbNn+1Z88PrL2Pj3ahzav9fiHOd2isfglqHQqiWK9QdqAzRIjrep9Ft+IAAAIABJREFUq7lD7HDUoImRIUiLDcd327Mw6yvzAZsAJGjRUQvgpuMKQXDThXETtRhBxiClnqb6tE6Iwm0jOuCCDpFIzytGVkGp25CDsioNNh4txD+Hs5RUS0Pp2iICg9rFIDzQ9mI9Ol0lcgtKzNZAyCiqwp/Hy/DvYWZ5WRZ/f3+0btcBbTt2xthJV+KcUReB+/H2kn83rsMXH72D/bt3Ydvm9ShrwGvAOVOjgjG6axxSI6yTAx7PFsfhofW3IJjNwG0YFpYylapqP+w6XY5fdmch26Qrpv5YxmzExsVjyIiRGDfpSgy9gLy0+ZKTlYkli9/HT0u/ws5t/0BXZtmT0b9NHIa3DUe4CW+jbrQ5OsL1cSTNR8T8CCR8rLqYHBWKTzccx/zlFkkUa3Ezs8HyXpWjlJRxnY6AEASnQ+5REzJyebg5jS/qlYKHLuyM4tJSpOeV1HsRu8rKHemF+O7fLGQV6pQsCu45R0eEYVTXOLSK1iIqJAAJ4YFKHritQlc6qyqyeJI5ydUBG9NLsWpP/X4EpsfzqzmlZSsktUhF5249cdl1N6Jjt57wD7A9Qj796GF8/fF72LRuNTJPZuDIwf0oLanv7jfVgVUux3dPQFJ4gNVtBf25KYmRSnqcOSkurZ/NoD+uvMoPOxWSkIk8MyRCf5xWq0VqqzZgq2gSqPPHTbR1mZTjmcr59kvPYv2aP3H00AFkZzZM3LqnxmB42wjEh/jVK/BBe5PiIuDvb/s10yTlXXQSt1TiI4LA2g+L1x/Hyz+bJQm8+Nm19R21MJKLtJVpnYGAd1/xzkDQe+d4CcDd5goiDekQhznjukKrqcaR7CKLAXrOhIaO8Z0ZRXh/zVFkF+pqHeUjuyVicPtYJIRrERzQ/MudsQi5+ea9CLS3uAI4lFeOzzadaLT5oaFhSGyRgtDwcKW+QM/efdF7wGD0OXMg4hKTEBFV0wOgsqIcWSfTsW/XDqz5YyW2/7MRBfl5ipcgMyMd+Xm5jSqdq9QwiAnFhK7RiA0lOWiccA8+NIQxCualvKJKidPQF5UyPaq8CtiVU4nlO04qgawNSYBWi4TEZMQmJKBVm/a4+LIpOPPs4QiLsNxM8NTxo/js/Tfx24ofUVFegeNHDqGwIN+qcX1axWJwyzDEh2hgjvsEaQOQGGc/L49VhVx4AMlQQkQI6IWb+8MebD5ktt4RCygxYPlXF6oqUzsBgcY+G5ygikzhRgjQh8xPrpr6sgbSr3UM5k3sjqAA4GBmodt4DvZlFuH134/UFi+KCg/ByK4JGNYuAqH6PtN2Apg5//xatiSV1cCR3FIs3pINnZkUP2tqsKERtx1CQkMREBAAjabG5810NJIEEgK2ZC4rLUFlZf0Uy4bG1wb4o3+7BAxKDkBkA90ZTcdQ0jbjw8G2x5ZE6dZZYj5YUX9ORTUJVBW+3pKOokaW+WUabWR0jFJYqaFsh4pyHVghsjGkQK/PkA4JGJAWhoiAarPkgHa3iA9XOiI2R9LLgrD94AmUVGuVeRJDNejeMhqhfs0qddwclSyeGxTgr1RbXHsoF7O+2WEp+JY5kZcDWOcQJWRQt0BACIJbLIPbKcGas11NtYoJC8J1Q9vj0l5x2H8q321iDrKLK5UudZv3p9eqfEHXBEw8IxmBDnALM0sjK7e4XlqfIV5M5MgqqcRfx0qx5bB7VJ0NDNDglsEtEakFbA3BYHof0/ysiTUvAs8nNvnlwBt/HUVpRf322dbmsNfvR3SMxcCWESB/tPQg1Gr9kWyH2gesC1FUVoF3N+Vi9+EMsF8V+yOQsJ3ZNh4Te8XD3891WJhiGhmsRWpsOJZuSVcKKZkR8kHGIrzJRq32WhMZx70QEILgXuvhDtp8DmACgHpvg76tovHyFT1x8FQ+KtwolfFgVjGeXrbfqDDThT0ScekZyY12n9sKfE0sQnmDLn0+QRkjyaqCX23Phs5MbwJb523q8f3aJWNUm8AmESYWCGJ744a8B4Z6GXbAbEhfXWU13v4nDydPmy/J3FRbrZ0XHKjFue2j0T81BP6m6RgmJ7OcNL0I9pLyympkF1cozZIOnagpKUC3fmp8JMb1aoG+LRquQWEvPayNQ4tjw4OQHBuJt1cfxZsrzZIExiMMBmA5Z9TaRPJ7t0bAfle+W5spyjUSAWYt8EnQyvR4Rv9/MLU/jmQVILeBILNGzmO3w6rhh92ZpXh+2W6jMVu3iFcIQve45rmGG1L0VHah2YwGc+eUV2uw9lgxft5lPYDRbuCwA1dMFKb2jUZQM2AwrJrYGN2YOcKMBkvBnKZj7C3wx8d/O6fJX4/UaLDOQWSA9a0Zdm5MdFBjJsZjrD9WjLd/31cLR2xUhOL1GtTSKR3ZG7OUSmbD9sxyPLd8H3Ly6rp2mpzcBYDxDdio0eUgd0dACIK7r5Dz9CM52ACgh+mU8ZEheObKQegQpsOBTPfyJmYVleO/vx/HidP56NEyDl1SovC5+rLhw3ZMj0SHeRHoTs/KLUKFDW7y0mp//HmoABsOn0ZFVZWyTWPPTpf8GuVXcYu4SEzsGomowObd4jFRIQgL1tr8Fc0GV3mFxpUnG7qU6U34dm8Rdp/IUbxTVXYChdYTk7jwYAxpH4te8da3SainvhmVo26/IzlleGb5Qeh0xhkxw7qlYnyvRERrrRMYR+lmOm5yVAh+2Z2NBb8esBSQfI1aQMl8eo+zFJV57I5A854edldHBnQhAmztdxsAozBxpj71SovEwim9sfNErgvVMz91RoEOTy07iKAADcb2SUMwyvDummNK8OTgDgkY3zsR8aGOK+N7Oq8mYNHW95mSdZFdjjWHcpFbVAZ+Ueoqqmx+MXJ9WMSHhX1YAbFv61gMSAlFmO3ZkvUAZldHZi5wH95WIR75haXIt1D3wNJ4Bboq/HqwCPtO5qO8qrpJmHBsBhWGBGgQHhyAs9rGoo9J2WRr9iTGhiPIzsGt+jm59nszS/Dsspo0QsaGkMSU6GpIweT+KbigK6ubu4cwViIpOgyL15/A+6sPWdpW6wNgq1RZdI81s5cWQhDshaRnj9MSwFIAvMlrhVuvHZKi8P517kkOqOiJvFLM/nYverWMwp3ntMLR/Ap8+U8mth2u2d+dcmYqRnSJc5gXgXOwgqBpHwJbLgdlmyRbh43HC5Gr9HuoqWZYCT8lhoH5C2wYFeDvr0TA80dfDpnZGt1TYtA5RoMwf/sFufGFFRsd2qzSwqVlFYoXgamhtko5NNiXW421B0+jsKQEzAwpqyRhqFZaTOsx4rgajR+0/v4IVohStfL13yIuSmk6FaWx/aOWxIhpjfaMPTC0v0AHfLq9CGv+3Y9grT+GdU5QSpV/sv64Usp7VI9kjOmegPBmen9sxbyh42PDgrDhRCne+fMQ0k+b3Wrg3llHABb3Ieypj4zlHASEIDgHZ3eehVsL3wE431RJfjm8fP3ZiKzMg86kIqG7GESCMP+XI7i4X2sMb13TOnjlntPK1w5fJOd2TcTYHgmIDrb9K7ixNvJldfJ0Ecqb8CJsaI6C6kDklTHQkbUXCpEQE4VQrR/CNJXQwnHpcXzhsmIi2xo39wHBrQZ6EZrbnyNXp8HBvAoczSlGdgELc9WRjpDgIKREh6FzYhhSgxuur2BtTQMCNEiKZTplcy03PxOp39FcHR7/dpdyQLfUaEwb3l4hBku3ZeKvXSeUIl7XDUrD4HY19S/cRbjV8MP2LHz49xHkG3Q2NdBvFIDl7qKv6NF8BBxzFzRfLxnBeQhcAOBlPqtMpxzaIQ6zx3bGEZNWvs5TzfpMJAjvrD6Gh0d3hMav5st7x8lifLEpA4ezCpW/Tx3cCoPbRzf7ZdeQNqW6SpzOLVZIiScLv5ojQgMRERZkt5ckvQiFRTqbt0+cjSNJQXx0mMO2FmgPvSDf7crHD5sOKymOZ7WLw/UDkxVT1x7Kwxeb0nG6SIfrB6Xh7A6xzobA6nzREeFY+NsB/Lojw1LXjhQAdfnGVkeUA9wZASEI7rw6jteNLsFF5sopR0eEYsm0fth/0rkpaLaafKqwHF9sycbtQ2oesnr5cXsmvtqcobyUhndOwEU9EpSqgY6UmsC8mvLOnijcUmIKYGR4EJjaaC/h9kiuUmGxwq2xISmKtCMxModfemElHv16u/KrFjFhuHpwW3SJrUkxYRzKkn9OYtn2k25LEBgvsfpAHr7cdAKnCsz2tVgA4C57XTsyjmsREILgWvxdPftTAO4EUK9N3Q3ndsXQNDtEujnYwpIKYF++Bj1jjb/ct50owpf/ZOBodk2HwdvOaYN+rSId6kXgPGzmxDoAnsYR+CAIDAxAVHgQmN5nb6ELnWWYmxKPYG9dzI3H7ZSYiOBmV0xsSFdmrHyxLQfLtx5Takqc0ToWtw7hB3ed/HUwH0v+ycDFPePd0oNATRMjgvHBhpP4fssJFJfV29IhOx4H4HtnrJvM4VgEhCA4Fl93Hn0ogOcADDJV8rzuqbhlUDIK69/8bmePUoyo2g8B6vaCXkEG/n295SR+/Peksv89pEM8xvdKQJw9wvsbQIH65OWXoLDEc0iCnhzQcxDsAHKgh4vZHiQJph02XX1RhQQFIDoypNGFoJqqb3ox8OiXDPQH4sKDcNWgNuidXBM3o5eCcj98uvEEOscHuS1BoK5ZZf54Y+U+HMw0G5O4H0BnJc5WxKMREILg0cvXLOUZd8BmTPVk0fUD4F9Z2qzB3eHkHRnF+HJzOg5l1XgRpp/bDn1Sw83W3Lenvtxi4FYDCwU1NzjPnnqZG4vbCmxGFOFgcqCfm5iwiJK7kASSg6iIECVV1NHy1rosrNl9QvFS9G4Vh+lDW5idcvGGE0iLDnZrgsAXx4ajRfhk/VElZsJEuPdwP4D/OhpTGd+xCAhBcCy+7jo6Mxa4vTDAVMGLeiVjXI8EaB3Qw8DZYNCL8NmmDPyyM1MJHuzdKhpT+rdAvIO9CLSTsQ8MzCsq1dlUSMmZGDEgkS/I8NBAh2wrWLKFDZ3yi3Qor3DdByYffMHBWmVLhcGCjpZNGeV4bcVOZZro0EDcOKwduiWYL6u88mCxUrujZ5Kxd8HROto6flhwEGYt3Ym9J2uCgU2EgYqdAJj9pa1zyfGuQUAIgmtwd+WswQCeVHu619Pjhcu6OzQl0NmG78sqwWcbTmB/Zo0XYeo5HTEgLQRax38wKgF5DMzjVzNrAriTsM5BeGgQQoIDnPKCNLWdeBCXhrpiOgovZiuEBmkRHkZy4PgLgfEos386guOZuco2xlmdWuCG/nEWzcsq0yjNtCK17p8Rs/5wHv637jjyS+td38UAXgQwy1HrKOM6HgEhCI7H2N1mGA/gGXPdGsf3TsaobvFKVUJvksUbM/D7nmzli7VVQiTuODsNcWH2D8QzhxlfDszZZ+Aif9xB/DUaREcGK/EGjsr3b4ydLFXN4MXc/JLGHG6XY5idERYaqNje2OZTzZ34002ZWLE9XUkLDA8KwANjuiIl3PKjV58D4ykP57nLDuFwVoG5DBXGIpwD4HhzMZTzXYOAp1yDrkHH+2Zl/dZHzcUexEZH4N7haUiOcP/MBVuX5XhuGT5Yewz7TtV4EYZ0boHJZ8Qh1BluBFVZpvoVlZajuKTcZa513uyM1g8LCWxU62ZbcW7K8SRQJWXlKGDFRRt6Wtg6l2EKJ70GjqqSaKpXUYUfHv56JwpLdQjQaDBlSAec04ZOPO+RXadKsPC3g0o7axPhDfc+w3+8x1rfskQIgm+t9yQALwFIMzX7usGtcVabyCa1A/YECJfvyceybenIKy5DYKAWj47phJQIf4enPRpiw7gENnaiJ6G41LlZDhqNBnFRIWClwIa+nKvgh6JKf2QVluNkXglKyqtQWuUHfXfvEH8g0K8CrZLjEBnkh2j/5lUu1OPD9EdWomS9BHs1atKPzRgDfawB7XemvL7qKDYdyVWCVcOCAvD8pB4I0rj/1oGtGL206hR2HD5pbu1Y9GGi2iXW1mHleBcjIATBxQvgxOnpPWBk8UzTOTu2TML1/eORHO74YC0n2ms0FZsAvbbyEPaeqomZahkbiodGtXPJdgq9CYziLyhibEK5pYp0doGKX8okBoycNy1+pKtm+eJqrNufiWOZdQWxKuCHsooqpZU1K2yTHOjd3oxdZcXK0KBA8F2rVdNL+YUeEx6Mge3i0TU5FEF+tgcgMmaD2w4kCnlFZUr/ieYIeypEKbUN2NDK+df2D3sK8f2mIygtr/myfvTCjmgb7z6tnJuDrem5GYWVeOLbncp1YyLcP1oM4EZ7zidjOQcBIQjOwdkdZpkA4C2mYJsqc8uwtujXMkJ54HuzHC+oxOu/HUB6bs2e9/BebXBNb6PmlU41ny9AJduBHoWScrt+ObMDYzRfjho/pckTX+CU8spqrDlSjF+2H0d1tR9KK6tRUFoBnfoSaw4A9ExEBGuVrZsgrT8GdEjC4LaRCPO3jSyQKFRW1jRlYpAnsx5YZKgxQiIUGVaTlUFy5Kw4A1PdWBXxmZ8O4Eh2kbI3371tCmYMdZ8OjY3B0tZj3ttShFVbGXZQT9hGni2haxpQiHgMAkIQPGapmqUoScE9AB4xHaVvx5aY1CsaSaHefynwFfP6n8ex5UiO8gUfqA3A/Ek9EBbQvC/VZq0MUyKrqpWXCF+CLNdcwvbRTRiU7nOWC2ZdA40GYDCiXjjeG39n4WB6lrJtUOzgrAq+nNmpkGShS1ocxnSLbZKHigSqmviohpBU0cugL2fNIEuuo54A8SrmvzkrxsDSMr3622FsPZ5fS2xevLwHooK8m4EXlQN3fVJTCMpEGJ37PwA3NOGyllNciID3vxVcCK4bTT0GwBeMUTPV6ZazW+PM1lEOLx7kLliUlldh7g97kZFfU0ee+8L/vbxenyqXqcsXn75MM4lDia5cKU/M2AX9VzRfhvwyptuc0fiGQXd8MepflnojvtlVhF+3HlaIgSuaSTE4LzDADxf2TsM57SMRpm3eY8e0jLWpvS5bPHXiL/7Nx287TqCkrCZrZc6E7mgZ4fwtDlfg8P6/Zfhj825zU/+uEoSDrtBL5mwaAs27U5s2p5zlXATC1f0/Vk40kqG9OmBc10jEB7pXjr6j4TlVFoBnvv0X+SU1D/BOrZLxwDmJjp62yeMrX8+mLgU/NCrA8pFv9+FUfolbVHTU+PkhKTYSdw1LQWK492XLcJmySv2w6PcD2H+qpgRxh5bJmDE0AUEBvvGorawGbvnIrBeBbjpmNExt8o0gJzodAd+4ap0Oq1tNOALAL6Ya8UvzhkFpGNLevXrOOwu5J346jCOZ+YqrWuuvwS0X9MQZCay96B1Cb8OspXtw0nzHPbNGBgQEwN/fH6GhYRg4cCAmTpyIbt27IyUlBYGBNVX/MjIysHXLFvy4bBmWfrNE+beqKgYWNj6bISI0BI+ObuOUipbOXE3G573+x2H8c7Qm4JNennkTOiMm1DvJkCVs/7dDh182mg03+BbArQBOOHNdZK6mI+Atz8OmI+DdZ7JWK1MbPzI1s3eHNEzsFYe0sKbsdns+aE+uOIpDJ3Nr97LDgwMwc3RnpHmBK5jxfM8sP4iDmYWNbq8cH5+Ahx56EHfeeSe02sa/0HTl5fjpp59wzdVXIy+v8a3Bu7RMxJ1DkxDsJV/WDP58d81RrD2YW0sOHruoE1KjzJdT9vw7yLIF3Ma7+/MdlvptLARwhxmfmDdD4rG2CUHw2KVrlOL9Aaw3PZLBa5PPTMGITrGNGsQbD3pi+REcOZVn9AKNDw/EfSM7IiHMs/eLd2VX4t1V+5FV0PiGW9OnT8eCV19tkgeFXpiff/4ZI0eOtOlSeWp8FyRHev4LlG71FXvz8dO2DOQX12A+rFsaJvaMRgRrJvuYkCx9sDkXq3ceNWf5p2rANHs1iLg5AkIQ3HyBmqEevQdMbfzEdIw2STGYdEYSulpoFtOMOT3m1Pu+3Imc4vpu8ZSoYNxxbhskRXjui+v5FQewK8O2HjmXXX45Hnn4YdCTkJAQX7ul0NCCMqMgMzMTR44cxvc//IAnHn/cpvXv2CIa95/XEoxN8FSh/+1AbiW+3HQCu4/n1JrxyIUd0C4+1FPNarbeuSXleODr3Za8CM8CeLDZk8gADkfAc+9Mh0Pj8ROwk9q/AOr5iy/pk4yxPd03KM8ZyBsShL59+2LTpk2107aKDcHNQ1shJcq9u+lZwqkpBIFjhYSE4MILx2DKlClITk6yugxFRcX43//+h/fff8/qsZYOWHRVT6VWg6dKZmE5vvonA+sO1pED2vLA6E7omBDcJI+Mp2JhqHeRrgpvrUnH1iPZ5sxhsCIJQoY32OrNNnjunenNq9J820gKmNpYE0VmIAnhgbjkjGQMbBPd/Fk8eARDgnDo0GFcd921+P13ZmLVCL/+rjsrDWkxnlc3v6kEwRXL6ckEIbuoHN9sOYm/9p9WoEtLa4n8/Hzk5+fh9lG90DtRgwC4tsaGK9ZUP2d6Xhke+26PuQwasinWZHndlfrJ3NYREIJgHSNPPIIl25YDOMNU+Qu7J2BS3xaeaJNddTYkCPn5BSgpKcbFF1+MtWvX1s7TKTFMidVoHetZ5XE9hSCEhQThpYmdPNKDkF2kw7dbT2HVvhpyEBERgfvum6nEYqxa9QduuqAX+idpoPXzXYKQW1KBd/8+gX+P1QRumsg8te18TQc1EbdEQAiCWy5Ls5VqB6BezdOkyGCM75OMga1dV1642ZbZaQBDglBSWqqUI/7zr9W48capOLC/DrouyeG4rG8LtInzHJLw7tp0rD1w2mVdIxu7RKP6tMGkHpEeV6Qrt6QSP2zPwi87TyqmMjV0/IQJSgzGY489hq+++gqTz+2NYSl+XtmYqbHry/iM/2fvOsCjqrb1P5mZzKT3TgIhkITeBenYULBcxXYtFztPEfQKVhAVFRTFq9i9wLVgARWwgVQBkSo9EAgE0hPSy2T6TN63TiY6LcmZmTOTmWTv9/ndp9l7nX3+veec/6y91r9yK9VYvDHH3pC9pmOGXXztsX6eR4ARBM9j7u4rUnTdy6bCTBbXGp8egzsvSYKkC3/VtABiThBaZHsVCgVWrFiJhQtfQnV185chtT7xwZg2JB6pPhJ0dq5KhxW7L6C8nn8Wg7s3pbV9iUSMRTf2Q5SPneDUa4zYdrYO27LLoVJrOEnn8ePHY9GiRRg9ejSmTZvGEYRbJw7ChCQR5J2wcqMje+WiQo/l+y7ifKndWIQnACwD4FixDkcmwPq6hAAjCC7B55WDQwDUW8+M3LlX94/HlMwwr5y0pydljyDQHCgqf8mSJXj33Xeh0TTLMXMkISEYNw1O4Krx+cKPZtPpGvx8rBRKrXeqZNJe/MfAGEipPKSPNIXWiK1n67HjTAUaGpsLfo0ZM4YjB0QSqLUQhGtHD8DkHmIEirvuEQPhoTWKsL9IhU932vUi/GKKRTjmI1ugy03Td36dXW5pnL7hOQDetB7dJzEcd4xKRmIQW3LCpjWCQH8rKirCq6++iuXLl0Ov//sFS56EG4ckoKcPkAR6MG8+XY0Nx0qg0XvXB9oVfWLwj0GxCJD6jt6EUmfEppx67DhdAYWymRyQx4DIwYQJE/76ubUQhMtG9MMNvSQIlnRNITLz58+Zi414e3setLb7kH5cJL38hdNPOzbQrQiwt4Vb4e0Q43QwapPDOCo1Ag+OTe6QCXnjRdsiCDTf/Px8vPLKK1i5ciUnJdzS0uOCcdPQJKRFybz+7FypF+HPvBp8eaAQelLz6eAm95fisvQITO4bg2CZ75ADtb4JG07XYeeZcihMQkgjRlyCN95YYkEOzD0IvZKiMWNUHCIDfec+3bU96lR6bDhZga3ZFfYuscB0zMBfhtNdE2V2bRBgBKFzbQpKb2yuQGTWkiMD8c8RSciI9Z1AO3cvS3sEga5/4cIFjiR8+umnFiQhLTYY1w5OQp8YGaReLpRH1SUO5tUgt9aIrSeK3A2rXft0Tj+mdyz6xgeif0Iggvx956VJqoBrjlVj//kqNKqaYzoGDx6MN99cissum2RTVrrFgxAWIMHTk9MQF+KbWhpCb5QjhfV4f2e+PelvKtrwEIDfhb4ms+c6AowguI6hN1n4AcD11hManByGRyf2gMimJKA3Td2zc+FDEGhGeXl5WLhwIT777DMLkpAUGYTL+iViVLcAyCWenbszV6vVAOfL61HcKMKGo0WgGgrubkEBcozsGYnMGBm6RwUiMlACPx/bgx/uLsaJ4gZotM28u1+/fnj33fcwbtw4UKCldWMEwf6uKlUY8d3xahzNtVun6VZTOfqOd3O5+0fhY/YZQRBuwehToaU0IuX2Ntd79WwjX7jFmgbI/DG+TzxuHdC1hZGsl4EvQaBxBQUFeP7557Fq1SoLkhAZEoD+3cJxy8AoBPqI5n6jXoSi6kZo9E3IrQMOnK9EebVw3t3QIDmG94xBv1g5gqRATIgMYXI/nwjsNN8jTU3A0q3ncaZc+dea9+7dGytX/g+XXjqKS22011oIQkiAFM9yHgTflewW8tGlbxLh99xarNqbb8/szxQWBOCMkNdktlxHgBGE9jGkF/8YAFQ2eaI96WKTCXI2t8gaU1RYa+HjxQB+A7DV9IMQKsx5LADKKbZY054xQZg5MRXhci/3hbe/DoL2cIQg0IWLi4vx3HPPcdLC5oGLMqkESRGBmHNZCuTeft5ghiBtOpUOIM18rVYHI0So1Ym5vPX8ahUKK+vQaDpvtwc81U9IS45FQqAIfZIiEOPf7JEgPYmwQH8Ey/x8zlvQcp/aJj/8Z8s55Fz8u55F9+7dsX79DxgwoH+r5IDGM4LQ+s/0QF4d/re3yF6wIkV9TjU9FwX9nTNjriHACIItfv0B3A9gHACqtkJv1mASSzP94ypm5Ksk7wL90xwO3axJ/hYAYtLOtmwAmdaDSejnyStJN4k1cwQcJQg0trx+yJBgAAAgAElEQVS8HE89/TS++fprixRIOmOPDfHHgusyIffzXS8pfeVp9EZouX8MnETuoRI1tp4sRYOq2cX++NV9Ee3fnBUh85dA6idCgL8YEpHv3rf5vrhQL8KXe3KRV0mlspv/EhcXhz179iA1NdUm5sD6V8UIQuvPmUZdEzaeqsTG43YLOd4I4CemieBdz2lXX3bedTfOzYY8BJMBUHpgGgDyCRIhIAkXT+FDT1zSLlDSewjAUgBfOnA7RGJI39xCIjEmLAjTJ/ZBn1CbuEUHTHfOrs4QBEKirq4OixYtxvLl/7UQU6K/hQdK8ciV/ZAWKpRTqOOx/z1PifWHC1Hb2KwJsejWoYiTeae2gqtorTtZiz055ahpVP9FDqKiopGVdQLx8fG8zLcQhEC5FPMmp3WKcta8bpxnp+1nqvDlAXKi2rQ8ADcAOM7TFOvmAQQ89QL0wK04dAm678EA3gUwwHQ0QETBG/zw9N1CT2PyLnxtIi7tSeI9C+AF+qgzR6F7VADmT0n3WVevQyvqYGdnCQJdhgSUvvzyK7zwwgJOM8G8yaVijEiLwT0jOke1zK5AEJqaRFj22wWcKlVAb5bSSsWXTp06ydVZ4NsYQWgbqf35Dfj6z1I02B5f0XNvNIB9fLFm/dyPQFcjCPQCnQ7gIxO0vnD/5F1YDOD5NrYDvaWSrP9O9QOen9Lb/bvIB6/gCkFoud1z53IxZco1OHv2rA0CdOTw6j8yvYJxurI8nZ0glChF+PyPPJwtswzUvOPOu7Dqi8/bPVKwxpYRhPZ324ascnx/xG6lZ4pDoCJzndNF1T40XtfDF16QroJG4cYkAPCYqXqY0/aobj394yxohqYmznVpMDp1XnvIRBK2WP2A6CiEqgslmt9YTKgcT183EBF+7TkfnIbDpwcKQRBaAOjbty9ycnJgMFgqFsaGyjFjYi90CxFB4ufsrulYmDsjQaBfHwlHkfjR1uxyKE36BoR0YGAg1qxZg6uvvrrNYMTWVqWFIMj8pVhwDTtisIfTxpMVHEFoqYFi1oeOWIcDoHgq1rwAAd98avEDju4tBsAk03m+Q+osUrEfF5Xe8lynaPXh3SMwvHci4uV6yMT8X/JECpQGMY4XViO/3ojjeRVQ65pJstYAqPjr5dPhNhGd5QBa3vwvmY4hgsxhiQ+V4dUbMvgh1QV7CUkQCL7rrrsee/fuQVWVZVEauUyK0b1j8Y9+4Qj0FztNLjtqiTobQSDho0p1E346dhH7c/9W9pNKpYiKisKOHTuQnp7usOegZX0YQWh/p/5ZrMT3h8tQXvt3lojZKDryzWrfCuvhCQQ6K0GgpP8EAJsA8NIXloj9ECyTQCYhL4EfBiSFYlJ6JKKDpBC5CSUiDgeK1fjhUHNuMOWm1yrbDSgkZvIogE9NQY2nqJaQ+WahFLSM+BDMvaKHJ/aQT15DaIJAIPzxxx7ce+89yM3NtdBLoL/1TQzD7Zd0Q6RchAAfSofsLASBlKYbtQbsy2vgSjU3NNLHanOLjo7BqFGjsGzZO1ymgiuNEQR+6K09UoZfsige26bdAuBHe4qw/CyzXkIi4KZXn5BTdNhWLwAPmuQ721QH8vPzQ6hcilC5H+LCAjEhPRoZMR2jsU8PsJwqPb7dfwFqvREVCp3NS8YMCSIJ/2f6Ie0EkG6OUmiAFC/eNBhhfn9XI3QYxU4+wB0EgSN5Gg0uu+wy5Oaex8WLluesYUFybo+N6xmKcE5V0PubrxME+qEotUbkVmnw+/l6HD5PpUqaG/3+e/TogRdeeBHTpt2EoCALJ5xTi9NCEPylEiyYkoaEUCa1bA/IH45dxM9Z5VwqrVWjBRoKwK7kolOLwgY5jUBnIgh0hNAXwCcARraVoigRiziFt7jQAAztEYVRKYHwpqqzBbVarD9egbIaBS7Wt/qSpyMG8iJMMx2l/LUJwgOkWHqzhVPB6Q3SGQfqm/zwzNqTqFE2i/vYOQt16bbVajU+/ewzLP/vchw9esQmNmF4ahQmpkejW5gEIV5etMiXCQIVWbpQpUZ2uQq/HLXMNklISEBmZiYWLFiAiRNJ/0yY1kIQyNrL16cjMYxChFizRuBQoQLrjpahtPZvT45ZH3J92pVcZEh6FoHOQhAoCHGEqcwx/a/dRq73pIgAJEfIMa53NNJjvPfHS8Q6q0SB7w6XoLiWf6Ah3WO/lGg8Pp5OWFizh0CtQY6F64+iznScIzRBaLnm+fPn8cQTc5CdfYoLYjRvwQEyTOgdiSHdQpAQJoNc4p0/xaNlWuzKqYRC3UymZkxMQ5S/dweZ643A2Uo1impU+O5wqaXypUyGjIwMPPDgg/jn7bcjOjpa0B8JIwj84fzqYAm2na60N+A6ABuZaBJ/LN3V0zufSo7dLYkDXQlgHoAhrQ2NDg1EZqwcl6ZFIVOAqob0UqEYgib6PzMvGQFKynrN/zh2I/Z6nyxpwLeHS1FYw48k+EvEeO6m4UiWtYg0uj6HzmbBnCAkJiahuNh9VQ4VCgU2bdqEjz76CH/++Sdqa2st4EyJDsbI7mHoFRuElAgZ/L3JlQWg0eCHeq0ILZ7g2IAmSEXeKQRlbBLhSHEDGtQ6/HiyBnX1lkFwdJxw5ZVX4rbbbsPll1/ulm3NCAJ/WFcfKsXW7EoYzR+gzcN3A7gGgN0oRv5XYD1dRUCAV5irU3BpPB0akvrWMybBI7vGxvaKQu+EcIztwf+MkQgApSPq9UYYjEYLEkAXobMz6kOb2+ILVNScCklf8kQSzBv9KwVASiV+EIv5n0BTNTlKCyqsaf+lT5kX799OatGstYaAOUGYMvVa/PIzKby6t509ew5ff/01tmzZjP3790NnVU2xR2wYhicHIS48CAPiA7y+jLR70XLMutLghyN5VVDrgbXHK0BHPOYtLCwMI0eOwm233Yo777wTMpn74gIYQeC/dgcKFfjhaBnK7B8zUOE7SzbN3zTrKRACvkwQqDDSVQAozW+YPTyCqdxs92DcMiyx3QcuvfB1egN0eiIDzS99ncEInc4AvcGWIDiDPxEEKmbjLxVDImmucEckQi6TgLIo2mobTlXjlxMXoda2XaY3PjIUr05l2QttYVmmC8DrPx5BvVILTxEEmg/tKdL0//HHH7Ft2zYcOXLEJhA1MiwY41JDQKEJI9JiESnjn07rzJ705TEFtRrklitQqRZh+8kSroaEeZNIJMhIT8fd//oXpk6div793U+cZz76KD793/+gVCpZDEI7m0vbJManewqw/7xlarBpGAVRnfbl/dkZ5u7LBIEqLJLCIBVVsmlpsSEYkRqJSb1CWxWpIQ+BWqPjCAARBK3ub4LgqcUlTwNHECSkuUD/v5TzMFi3vBodF4+QXdJ2ad4HJqbj0mTvja3wFK5tXee8OhDLfj7MFSDyJEFomRNVg9y2bTt+/30XfvrpJ5w8edImkJH6jk6PR0wAkBAVgsGJQV7r2vfkmqoMfsgqVaCsphG5lSrklDVAo7cUqCIPXr+e3XD5dbdgwvixuOEfVAfIM+31JUvw1tKlXGEvFqTYPuZU3fGP3GobDy2AVSbVW+88z2r/1jpFD18lCJQG8zqAK+ytwsCUSFyeQbEGchtyQF9xaq0eGq2BOzrg/tfgHXuQ8yZQhTypH0iYiYhDS6MzYCpysiPHLtv+q9+Kuwd2io3pzpswJwj/mn4vPvt0pTsv16ptSoncvn07Tp06hVWrvuSKApmXkqaBXKXIiGD0iwtAoNSPOyrLiJF3KbKgNfoht1qLnNJa1Kr0OFOuREWd0m4a8NDUGAwbMwk33ngjRk2ajIgI8lR7rjGC4BjWG880YFOW3doMZIgegJbszzHzrLeLCPgiQaCyak9R5Vl7qYyDUiIxpX8sUiP8Ye61J2JQ36jlyECzp8B79x0dRUglYq6cboBMCpm/mAsSYwTBxd1uGm5OEGY/9gTeeZuKZ3ZcI4nmnTt3Ii8vD2vXrcfmTb/axCjQ7KRiMRIig5AcJkWAvwQ948M54hAs8Q6CKySCKn0Tsss1OF1SB6VWj7IGPYprGqE1KZCaX4v0DK4YkISk5B64+6FHkdZnIFJ62VQ+F3J6rdpiBMExmMuVTfh0Tz7OlFIxW5tGVXUbHbPIeguJgK8RBJoveQ3ok6+bNRA948Jw4+A4pEeT56D5r0QMahvUXMChRqO3FzErJJ6C2qKvRzpuCA70R32TDN/+WYxj+XbTgrjrXjOyD25Op9AM1tpCwNsIgvlcT5zIwunT2Vxa5KJFi7izbHuNYlmiQgIQHyqFzK8JUWFB6J8cidQwP+7ffa0RAS5WinG4oAZllbXQGYGyBh3K69V2j1/o/hKiwjAhLRRGPwnOlDbgrXc/wGXXkRBfxzVGEBzH/v2d+ThcYPfolM6G1jtukY0QCgFfIwjkP6c6BDZaBwEyCW4dloRRPUL/ShUjYkCeAo1Wb++MSygM3W6HMh4OFquw7Ww1GtWtSzH/546hCBV7d46628HicQFvJggt06+trcN333+HBx94gMcdAXJ/KaJD5AiViSAWNXGFhnrHh2FgShQSAvReVwOi3iDF8cJaHC+sgdaU0aHQiVDeoEGjqnUFUKlEgtHpcegXK0NEkBRJYf74394SHM6vxsOPzMS771IF945ry1esxMKXXkJhYQGLQeC5DP/9owgH8mrsqSpS0SYSv2OtgxDwJYLgD+AmAF/ZO1q4bmAcruwTjSB/MVQaHRqVWmh0BnubroOgdv6ytToxtp6rQVZRTZtGlt890OteBM7ftftGHq2VY+WWoxzZevPNtzBnzr/ddzEXLM998im885+lGJWegLEpctRrjNh1vh5ZBW3HodAlyfsULJciPNAfcrPCYnR0lZkcjcRgMVJjQzlC6Sdyj8dB0yRGlQrIq1LifIUCF2sU0OmbCSypWVLdkTpVm5LiXF8iyANSojE6NRRh/jARIfFf835m/WlUNGiRmJiI4uJiFxB3feiqL7/C88/PR96FC4wg8ITzWJUIa/aeR1lNg70RvvSO4nnHvtPNl8CnHKVfAKRYw3tF31hM6ReDUJkfd5yg0ui9JvBQiK1woKgR287VcISnrcYIAj+0D1bL8Pm2Y1CqtXj//Q/xyCNU1sL7GgXYqZUNeHLqQPQIpqDaJtSqDVASAdb74UiZBvvPlaNBYf8Ywu7TViRCoEwKfzG4OAYx2iYHUqkE0RFhXEyMdSPvXGl562SFLNNRgVpnhFpngFZv4C1rTUqTw3vFY0S3QASJDQiSSxEmF9uVRP/0WCP2nszjjg+tS257elUZQXAccW2TH97ZlovTpXYJQhgAuwEKjl+JjXAUAV8hCHSwPhXAOusbDJRJcNuwRIzsHoo6hRpqDR0nuOeLyFFwheh/qkKDTWdrUdfYtpLiQ1cPwcgY7w28FAILoWz4CkEgLwB5xP5za3/u2MC80Zk91RqgUuGUoluqBA4UqXD8wkU0qvipbvLBk+ZAX/AiO74pUhHVCxTsS9cY2DMR49LCkSjXQ+Qn4ggMVb70a4fEHC1VY/muXKi0/AkIn3t3pg8jCM6gBizdeh6nSu0KJ94D4DPnrLJRriLgKwShN4CDAIhNWrRrB8Tist4RUKl03MOq81ADknEG9hc2YNOZmnZJz7LbByBI6ivL6eq2dW28LxCExsZGBAcHI0gmxrJb+7V7w0QYtIYmk6hXE0iE5kRpI46UanHqQrHXBeemJsWhX7QEo3tFIdCv+dhBIhFz8UOOqk2TN+W5dVlQqPU4fSYHGen0uOiYxgiCc7h/8HshjhbUcl4yq0bVHSlzjbUOQMBX3ih0vHDCGp+Y0ABclRGJjEhpp4g1sL6/46WN+OFkFQw8PCLv3d4PAVJbN3AH7Cmvv6QvEIRFixZj3rzneBMEe6DTs7ZFCrz5sSuCyijGhbomnMivQEGdHueLy922XlHhoUiNDUOfhGD0jglApFQPsamOQ7MUOSAWomAJ5Tx/ewoNaj2nf7B27Vq33VN7hhlBaA8h+3/PVsjx+Y5slNvGIVCaI6U7stYBCPgCQSCvwfsA7rTGZ2xqGK7oFd4BsLn/kromylxQYnP23/XrW7uqTCrGW9P6gOowsNY+AuYE4YMPPsLDD89of5CHeyQnp3BFpKYM64mb+vCvISL0NPVNImiapDDaOWKQwIAA09e/0Nd11F4LQaAyziUlJY4OF6z/16vXYP5zz+H8+VwWpOggqq9uPIfzlTbxNEQQ6CHP0rMcxFOI7r5AEBIB2IQmB8n9Mb5nOEYmUaXnztXoay+7XIk1xyp43djdk0dgXIzW5pya1+Au2MmcIHz62eeY/q+7vQ6FgIAA6LQavHzLMMT5t57a6nUT76AJPbn2DKobNZBKpdBqOw6vnTt34dFHZyIrK4sRBAf3wqJfzyG3woYgUEDNZQD2OmiOdRcAAW8nCDS/NABnre91aHIYpmRGQoLOpyLXaBBhb5Eau3PKeC3xm9P6ICKQCSTxAouCWcyyGEjqeNKkSXyHeqQfSTCHh4dzBOGTOwd45Jq+fpGNeQas+yMbfmIxV82R1BU7ojGC4Dzqb20v4GrNWJV/pu+lLABMQ955aJ0e6e0EgbQPqJQzVWz8q9H55SUpIbg63bM6606j7MBA+jXkVGrw9RF+5IBMM4LgAMA+QBDWr/8Rt956M4wGPSMIPJe2WGHEwh9PASI/kBplZmYGz5HCdmMEwXk8N+QosPFoIZfGa9XoYZjgvGU20lkEvJ0ghACgKCqL8oRhQXJMSIvA0DjiD52rKXTAjkIN/szlRxD8/ER448ZMhDMPAu+N4O0ehKuvmYItmzchNMAfS29K531fXbkjxUo8+vUJGJqA6ffci5UrSHDV840RBOcxJz2EhT+dRmmdTZouPQxJWp/lcTsPr1MjfYEg2IhkZMSH4rr+sQgW2TBNp0DwlkF0WHK+Ro9Vf/JXg0uLC8PsCd0QLGMZDHzX0dsJQmxsLCoqKjD1knTclMFKd/Nd14e/yoLWYERmZiays0ml1/ONEQTXMH/+pxyU1NoQBArGGmIvFs21q7HR7SHg7QQhFIBNFY+BCUG4qX90e/fmc39v1AFb8lQ4msc/9WzutQOQEdG+mIzPgeHGCXszQTAajYiPj+cIwos3DkJycGdS9nDjogJoIQiRkZGoqmpfjtods2EEwTVUX/zlHAqrbQIVSUGJjpopm401DyLg7QSBZJXzrfHojASBXgOFDQas3Fdkb/mJMdBaxVj/8ZXrM5AQJvPglvH9S3kzQTiTk4NLR41CTU0N/nvXILfVSfD9VbS9gxc3FaKwvAaMIPju6n6w5yKO5lVYS+XT4/GYyYvguzfngzP3doIwHsBOa1wHJQbjxn5RPgh361Mm2dxN5xtxJN/ulw+pSNJaDWcEwfVl92aC8NJLC/H6669BpVJhxd0scNuR1d6Wr8NXu7K5DJCsk6eQlOj5uDbmQXBkxWz7Hi434tOdZ9Cotjk+pkw2FpDjGrwOj/Z2gkDVG783vyvSbB+aFIqpGTaqyw7fvDcNqFIZ8e7uQntTovM3+gPpQVhIjor9/LDwut6ID2UeBEfW0psJwpgxY7Fv317I/KV475aOicR3BEtv6luqMGL+uiyQhsTChS9j7tw5Hp8eIwiuQa6HH575/iRqlDYE4RwA+kF0vrx21yBz62hvJwizAbxjjoBMKsEl3SNweWqgW4HxpHGdsQkbztTiSJHdomU/AqgGQEVLLNrQ3km4a0gEwmQdk/PtSYyEvJY3E4RevXohNzcXQ3vGYeaYOCFvu9PbIvXR/1t1lNNAGDN2LHbttHE+uh0DRhBch/jJtdmopoAsy3YBwAgAHRNc4vpt+aQFbycIj1gHphBBGNE9HFekdpz8rNArrdQ1YcmOAntmKVrnLQAqAK9ad5g9uQ/6x/gzBUUHF8RbCYJarUG/fn1x/vx5zLyqL4bGSRy8M9b9/i+Og4o89O7VCzk5OR4HhBEE1yF/ev0ZVDZorA2RJ3UWgNWuX4FZ4IuAtxOE2wB8Y34zErEYQ7uFYko6JTj4fqPom425Shw4b1dWeTuAfwO4DsAr1nc7/5peSI3uPJ4UT62mtxKE7dt/w5133oGysjK8ffsghEhZBoOje4IjCAC6d++OvLw8R4e73J8RBJchBGUyFNUoYVWjjlwKGwD8w/UrMAt8EfB2gnAlgM3mN0P16QclBOMf/SL53qNX96MfweKdJdDqbFxqdNa2EsCjAOYBeJ4RBGGW0lsJwqxZs7Fy5QoolUp8dMcASB2teywMPD5tZe6PF1BT18AIgg+v4qY8I9btzYZOb6OLdBjAMB++NZ+burcTBIpaPWONamdKcyzXSPDBrlx7G+d3AFRmkNQkFwG43LwTnbM+d3UaUqM6X7Eqd/+KzjQG4IONR6BQaeFNtRjGjBmDffv2gbQQGEFwbhesPqnA5sPnERcXhx9//BmXXGKT+OOcYZ6jmAeBJ1BtdFMYJHjmu2NQaRlBcB1N1yx4O0GgMp81nZkgvL/vIioabJTD6JapqP00AA+YAjUtzhL8JX545qo0dGcEweFfwHl1IJb9fBgNKi1WrvwU99473WEb7hgwZMgQHD16FHHRUVg4ORESP2//eboDBdds5taLsOiHY1wmwwMPPIBly5a5ZtDB0YwgOAhYK91nrT4JpS1BOGJK9WaZDMLA3K4Vb38C0dezTWh/ZkIYru8fg0D4ttSyESIs3GL3nJQiFl8E8D9TYI7NU+7K4emY2iuAnVO3u8VtO5gThPff/xCPPPJ/TlgRdgiVKB4xYgSOHz+Oy/sl4rYhURCLvP3nKSwGQlhT6akmwzGIxWKMHTcOO377TQizvG18s+ZbzHvuWZzPzWXlnnmjZtuxFYJAVR2p9LPdgC0XLseGtoKAtz+B7BKE0AAZxqWFY0SCb+vU76mSYvNhSu+1afRUuxYAZTFQ5K4NQXj8ijT0Twji1JNYcwwBbyQIm7dswUMPPoj8/Hw8dd1ApIc3K2Ox5hgCBmMTHvryBDdo4MCBOHaMBPg811Z9+RWef34+8i5cYATBBdhbIQikqvswxXW7YJoNdQABb38GUblGKvVMOtx/NZr0iOQQTMn07UDF13cWQ6XVWy8Xuc/oB0AEgZpdgjD3yp7oEx/swFKzri0IeCNBmDnzUXz22adobGzEf27ph1A5K77lzI41JwgDBgzgPDKebIwgCIP2CxsuoKiqwdoYncWuAeAdZ4LC3KpXW/F2gkDg9QRgE8U3NDkMUzKjIPHRCqBUnvb13/Kho/q0lo0ida8yCYLQW+IxAEutOzGC4Pzv6qI+AK/9cAT1Si285Yhh/Pjx+P13iksF3r6lL0LkTAPBmRVmBMEZ1LxvzKpj9dhxPA92En13AJjkfTPunDPqKIJA15UCoBcg6QTfavpSzgTA68noL5VgfGo4xnb3TcGkHeUS7DpxgYtYt2r7AFxq+m90xEJ6sS8wgiDcD7DWIMfC9UdRp9Tivfc+wMyZ5LXs2MYIgjD4GylteFcVzhcUI7VnT3z77XcYNpQqBXumMQ+CMDiX6ILwwup9MFqJIQBgBEEYiHlZ8TRBoCMD8ot3BzAXANVacDqQYGRKKK7sHe6T0d5v7iyCwjZKl6IufwFwo2n1qFgVKSla5P5KxH749+WpyIzzTXLEa2e6sZM5QZj92BN4520bB40br25r2mAwYOLEidi9ezcC5P547freCJaxIwZnFoG+OLcX6PHVzlMICQnBgw8+iKVLPbe+n3+xCgsWPI/8vDwWg+DMApqNeXDVCUYQXMTQ1eGeIghEAqhUMeXyPwWgj6sTp/GBcn9c3iscwxJ8SwtA3wS8vcsuQTgNYBSAOhM+VH+BMhksWkigDI+OT0GvGN+6byHWXAgb9UYZXlx3jPMgeANBOHz4KKZPvxtZWVmYMKA7bhsQChkTSXJ6qQvqjXjphyxIpVJMmTIV69evc9qWowPfXPoW3nxjCS5evMgIgqPgWfVvhSBQgQ3KZGCpji7iy2e4uwkCHSNQzVVa0OcA9OYzKUf6XJISigk9wxAk9Z2CRadrjFh/rARqnY0QCKXxDDC7f7sE4YrhmZjSKwBhUpvxjkDXZftSeulT35/iKsZ5A0FYuHAh3nnnHVRXV+ORq/picKwEjB84vz1rNU2Ys6Y5k2H06NH4448/nDfm4MjXlyzBW0uXory8nBEEB7Gz7t4KQdgDYCqAWhfNs+E8EHAnQaCjBAq2exDA1Tzm4lQXUhScmBaBUSnB8PcRjrDsj2JUK22yF+g/kKw0bf6WZpcg3DuhN0alBEHCSLRTe4YGzf0+myMIDz70MD75+AOn7Qgx8K6778a3a9aAtBBe/kdfJIbwCsMR4tKd0kajxoDZa04yguDjq/vQV1kwGGwcBSSWdAcA8ray5mYE3EEQ6DWdCmCKvfz91u5H7i9FiEyMEH+/VqsT0pcfvVdrlVqL9MDEiCBc1TscPcK8/8FKZ6Tv/lGCatt651TG9E4Am9ojCDMndgdlcbDmPAItBGHK1Gvxy88/OW9IgJHXXnstfvmFQk+A1/6RiZgQCtVhzVkEOpIgvLRwIafeWF1VxTwIzi6gadxj35+BQmlT1bHQFLRtc/Tq4uXYcDsICE0QyN5kAHeZXnZtgh4slyI+WMqdt0aGBSM51B8pYVLI/ey7zrVNfihXi5Bb3oDyOiUMEKGiUY/qRg2GJoVgfGoowrw8f1xl9MMne4u4r1erRhs/xey/EZbkQaCCTRaNEQTXf8uMILiOobdaMCcIw4cPx6+/bkJUlGc0Uygo8osvvuC8QQuvS0diGCVpseYMAvN/PofSGtKKs2gqAKsAPOSMTTbGMQSEJgj0Qltg8iC0OpPYUDkSQvyRECpDv9gAhPg7Nw2N0Q9nqzXIr2rkXPZJYf4YkRTEeSK8tR0q02LrmXJ7hUhIc5k8Ly2NPDH3AfgvIwjCr2YLQRgwYCCOH/es2p753dTW1eGWm2/G1q1bIb9extAAACAASURBVJVK8PK1vRATzDwIrqy4SmfES5uLUFFdi5SU7njt9dfxz9upcrz727Rp07B27VpIJBK8ODWNe8ax5hwCnx2qwa5T9N1k08jld71zVtkoRxBw7s1s/wozAbzZVtpiZJA/ukfIkRkbhJ6RckhFwgWiliuNOFelQnJEIBKDWj+mcAQcd/Rd/mc5imvVaLLM7yWXyRYA15hdkzI/iCW/wwiC8CvRQhDIstVaCH+xNixu2rQZc+bMwcmTWegRH4VZY+MRHuC9BNej4Dh5Ma0RWHtagy2HziAoKAjT77kH77/3npPWHBvWQhBk/lIsuCYN8aGM7DmG4N+9L6iD8Mq3exlBcBZAAcYJRRD+bSpJbFfTQCoRo1u4HMMSg5AWHQB3Pv8UBjHkfkZIRHY0uAQAzFUTH+8rRWmD1tpMo0kTgoIUW1o3AM8CeMS8s59IhEcmdMeQ5FBXp9Klx3sLQVi48GUsW/YOqqqqcM2QHpiaGYIAiVA/y665xCROerhMi4+2nua+5G+44QZ89913HgGDEQThYFY3STBzFQnL2jTmQRAO5jYtCfEkIhm61wDYfWOFBUgxJDkcvSL90a2LR2cTZfnEPkGglJ0Iq5UiPQQKr7eQgSORpIfHp2BwN0YQXPmNeAtBeOCBB/H5559Bp9PhkSsyMSjeH4wfuLKy4OR5C+sMeOnH5kyGyZMn49dff3XNKM/RLQQhQCbF/KuZB4EnbK12u/8Lu7U0GEFwFVie410lCDcDeMOkjGhjKzxAgskZUUiNCoDczzu/6HniJEg3cn2uPFCKMlsPgj2CQMWavgFgIZdID54ZY5MxIJEVanJlUbyFIPzzn//EN9/QMgPzpmYgNVLGqji6srCmsRUKHZ5Zl91hBCFQLsW8yYwguLqUjCC4iqBr410hCCSX/CmAsfbqJ1A1uhv6RqNnlJw98ExrdFErxZpDhahS2KTuUIpjtNVSkgz199bL2z+tG24ZGIFuwa4snWubpjOM9kaC8OK1vZEcwdQxhdhfVY1aPLW2OVW+IzwIQSaCEMdiEFxazlYIwgaTHL3NWa1LF2ODbRBw5S3zvqnspk1BgEB/MW4dGI0eEU6XWeiUS7WvUoxd2cVQqm0IgnUGA92/XYJw3SXpuLJ3MIL8bISWOiVm7ropbyAIVNr57rv/hXXr1nK3yQiCcKttThAmTZqEdevWIyzM/cdyLUcMlML93OQ0MILg2pq2QhAooJvSUmpcs85Gt4eAswSBUhmpDLFNcrG/WIR/DYtDN5b/y2HfYBDjaJka+RV1qFAa0KDS2qvgSBudghGbfc3NzS5BmD66O8amhcPPXiHU9lab/f0vBLyBIBw+fASzZ8/GH3/sZgRB4L1pThAGDhyE9z/4AGPHjBb4KrbmWghCSIAUzxJBYKJXLmHeCkGgio6ktVPsknE2uF0EnCEIVE9hOYBxgOXpgUgE3D8yqcsHIxLqVRrgQEEDLlQ1okFrhFqrbyudjvI9SwGUASC32QHTv1Pwp0W7f0wyRve0jmdsd51ZBysEvIEgfPzxJ3j11VdRWFiAbvExeGR0LOKCWIqjEJvVnCBER0fj8ccfx7x584Qw3aaNFoIQGiDBMxxBYDoIroD+8DfZ0OpsROUoteFRAHZzIF25HhtriYAzBIESiu+3p3dw9YAkjIyXdPmYg+NlKuw4X4cGtQ46Wy3x9vYgRXOSfJgaQBQjCO3B5dzfvYEgzJk7Fx+8/z7UajVG9+mGmweEI0zmIwVFnIPdY6MUuiZ8fkyBQ9kXEBAQwGkhfPiB+2tutBCEsAAJnmYEweX1nrPuHGoVNmqK5+lEDsAXLl+AGWgTAUcJwniTGNIIa6shgXI8dmkcJF38+XairBE/Z1dDoxdOBMoca+ZBEOYX7Q0E4aEZM7D8v//lPEt3jumFMd0D4cUioMIA7yErGkMTfsttxLf7z0MkEuHmW27BmtWr3X71FoIwbnAGpmXKESJl2VuugP7sj7koryOZGItGR7LLTCTBFfNsbDsIOEoQyHtAugc2NOCpickI9KGSy+7YGYUNBmzIqUdpdb07zHM2GUEQBlqvIAgPPYT//rdZSXv2lRkYEC9nsSXCLC9ILOnkRQ3e2XKGs3jzzTfj22+/Fch662ZaCMJlI/rhhl4SBEsYQXAF9AU/nUVxLZVfsGgE6lemOARXzLOxAhKETABvWckBc+ZHpyfg8hT/Ll3DnnbsiTIl1p6o4I5Y4qPCMDwtDn0SghEsl4AKyFysUaCgSom9OaVcTAI1Rx8fjCAI85v2NoJA59W9Y20SgoS52S5ohX5XF6q1ePWX5lRHTxOEWycOwoQkEafqyprzCCz/sxZ7swvsGSCCQNVvWXMjAo54EEgQaa71XPz8RJgzLglB/l07uCq3WoM1x6swqmcEbh+RBH+R/YqU1vjlN0qw9kgpcovK0YQm6AxNMBhbpw2MIAjza3jy++y/Sm53RC0GRWMjHv6/h7FqVfMxKiMIwqyruZWiWjVe+CmnQwjCbZMGYUKiCDJGEFxa2E0l/liz7U9GEFxC0fnBfAkCheISQZhlfanhqdG4KjUQlN7YlVt+rQaFCj3+OTzRaRga1Ab8nFWOg3m1UOmboNXZah0wguA0vBYD5/2Ui7La5rPNjiAIhw4dxty5c7Fjx2+MIAizpDZWzAnCjTfeiDVr1nC1GdzZWo4YHpk8EINi/SAB8yC4gvdxRRDeWWc3WYF5EFwBludYvm/1KQBeBTDY3C55Dx69NBGRge790fG8lw7rRt/7Un9/JEQKo4JXrgK+z6rHn6dJP8myMYIgzDK/urUIF8pqOHLQEQRhxYoVWLhwIQoKmt2nzIMgzLqaWzEnCKNHj+G0EAYPGij8hcwsthCEWZP7Y0CsBGJGEFzCu0Qjx/NrKOvbplH1remmjC+XrsEGt44AX4JAwkgvWZvpFhWKW/uFIbSLp2aR/kOAXIqosECX9xqdLhwtbsT7v+Xa2AoLlOFfI5MwuBurw+Aq0G/+VoQzxTUwNjVBr9dDLPbsEdmiRYvw+uuvo76+HlQaeM7lPbhKp6wJh4A5QUhNTcULL7yA6dPpneK+1kIQ5l3TCz2jXX8euG+mvmG5RivG3NVH7E2WgkueB+CZMp2+AZfgs+RDEKigOREEG5WROy/pjrQwUZePvCYQOYIQ7voDoUbdhHUna/HHqUKbxZ46tDuuzoxEoJhffIPgu6UTGXx7RxFOFjUThOrqGkREhHv07ubMmYO33qKYXyCzRyLuHhKJ+OAuniMs8AqYE4TQsDA8Nns257VxVyNPFBGEdevWgREEYVDWGprw0q95KKtusGfwM5NgkkKYqzEr1gjwIQgZAF4GcIv14BmjEpDApEQ5WKjKYnSEawSBjipOl6vw5qazNjs1IiQAtw9LwPBk5j0Q4mf87s5CHC+s5QhCQUEhkpO7CWGWtw1zgjChbyKu7xeJcDkjCLwB5NGxtF6L17cVoEGhhL+/P2bMmIFlyyh93j1Nq9Xh1ltvwQ8//MAIgkAQk0f1WKUI7/16zJ7Fo6YPVyrexJobEOBDEKgoBgUoJptfP0Quxd1DYxAbJHXDtHzPpFwmQUyEa2lqCo0R67Oq8NspUl22bJf174brBsQgVMK8B0LsjtXHarAtqxgGoxGnT59GRgbxYM81c4Jw84gUTOwVhgAJn5+j5+bo61eq1QDfZClw8BQJ7wH33XcfKPbDXU2lUuG2227DTz/9xAiCgCArNAa8trUApfa9CKTN8xQAG7EEAafQZU3xeSL926R/YAHSqJ7RGJ8SiEApHxOdH19XCQJ5DwpqNFj4c7OwiwUZC5Tj5qEJGJsa0vmB9NAdHq0NwMcb/4RWb8DBgwcxfPhwD125+TLmBOHBCb0wIjkIYpGjqhgenbLPXUypa8LWcw344c/mYF93E4Taujrceccd2LBhAyMIAu4WEqXdU6jGZ7uaU1at2n6TF2GbgJdkpkwI8Hm72yUIdwxPQq8IaZePP2jZSTJ/CaLDA0GZHc40lc6I745exI7TFTbDh/eMwbQh8YgNdM62M/Pp7GPy1IFYsv4gNDoD1q//ATfccL3Hbrmurh5zn5zLySxTmzUpFYO6hXT5GiZCLwBpihzIb8DKPzxDEKqqqnDXXXfh119/ZQRB4MWsatTjje0FqKi1G27wCgAKLrGp6iTwNLqcufbeOHQoSgThTWtk7hkehx4R8i4HWGs3LBb7ITRYhuAAiul0vFU26vD02mybgQFyGa4bGIfJGZ4NonP8DnxrRKVejhe+OwS1zoDFry3BM08/6bEboDLPzzzzDLZs2cxd87HLUjEwiXmHhF4AQ5MIWRdVWLal+cvT3R6E0tJSLktiy5YtjCAIvJgafRN2nm/A6v22qd+mqo7PAtgp8GW7vLn2CAK9lZ6mNG1GENrfK4EBzqU6ag1GrNpfgj9yq20uMjA5ArcMS0BiSNfWmmgffcd6aJvEeGL1cah0Btx73wNYuaL5a94Tbe26dZg/bz6ys08xguBGwOnAJqdchSWmoF93E4Tjx4/j4YcfwZ49fzCC4IZ1payU1zZfgEpj11FAKr//AZjwhJDQt0cQ0kwVs+5iBKF92Fu0EEgXwZGm0Brx2OosmyF+IhEuz4zG7cMTHDHH+vJE4NFvTnIEISMjE6dP23pveJpxuNvHH3+CBQsWoLz8IiMIDqPn2IBzFUos/vUcN+iWW2/FRx9+hMjICMeM8Oz9y4aNePrpp3AyK4sRBJ6YOdJNqTVg65kq/HC0zN6wXaaP2X2O2GR920agvVcZRW4tBnCFuZmQoEDcPiACSeyr1gJd7pghSIbgQP7HDPSVs+Z4HTYfy7dZqcz4YNw+PBHJ7CjHLb/jFoIQHByMhga7edZuue7ixYvxwgsvQqfTMoLgFoT/NmpOECZMnISlS5di2NAhbrnqyv99ipcXLkRe3gVGENyCMHC2Qom3tuXZk6Ent8JDAD5106W7pNn2CAIRg6UALPRJE6LC8I/MUMQFsrxt610TFOCPyDD+iniU5zv7uzNQqTUWpsgLMSYtEvde6tn8/K70K+gogvDSSy/hxRdf/AtqFoPgvl1nThDcrab42uuv462lS1FRUcEIgpuWtFFrxNYz1fjxaIm9K6w2ifrZTXdw05Q6tdn2CMKNACjP1KICUY+YUFybHoroQM/K0/rCSpAXISxIhiCeXoRDVRJ8sOGwza31jgvGvy5NRmII05lw17p7A0GIi47EfSNj0SuSv9fJXXh0RrvmBCEqKgpPP/0MnnzSpiitILc+4//+DytXrEBTkxHPTk5DahT/DwVBJtBFjBwrbsC7v+XZq6FSD+BuAD92ESjcfpvtEQRST3wfQIz5THrGhmBKehiiAxhBsLdCIUEyhIfwy/CYu+4sahS2Gh9DU8LwyITuLPXNjT8BbyAIfXok4J+Do5AUwrxx7lhqc4JAR0lUQZNqMrij3XPPPfjss88gk0rx1FWp6BHJ7xngjrl0ZpskgLXxdC22Hm8udGbVqD4DfdTWdmYMPHVv7RGEW00EIZoRBP5LQsGFlPJIRKGtVq0W4clvbSVEk6JCcffYXugdalvumf8sWM/2EPAGgnBp71jcMCAaMUEsS6W99XLm7+YEQSQS4fHHH/+rBoYz9toa00IQSHb9yStS0Z0RBKEh5uxR3NbeC3VYsds2bstEDKYB2O6Wi3cxo4wguGnBSTiJvAj+0ta9LHO/z0aN0jZlp09CCJ64vCf8mLKem1an2aw3EITrhqbgivRwBLOTJLestTlBoAs89thjePvtt91yrRaCECyn6pypSGEEwS04k9G8OiO+PVqJ0wV2MxruMFV5ZMJJLq5AewRhKoB3AFC641+NHTHwQz0sRM5lNdhreqMIs1efgIZ0RM1agMwfk/olYVo/JpzDD2Xne81Zm4PaRjU8mcVQVnYRzy9YgOX//YSb+B2je2Jcaij8/Sz3gfN3xUaaI1DaaMT/DtUiN7+I+8+eIAihcgn+zREEFoPgrt1IXoQdOVVYtb/Y3iXozPYyACzl0cUFaI8gTDaJT/Qxv06iKYshlmUxtAt/RGiA3bTHl7YUofBijU2gDdWQp1KxrLkfgYWbCpFfXoOgoCCUlpYhJMT9lTJPZGVxIkk//vgDd4P3jk3FpT1CWR0GNy13tRr47pQC+082F2zyBEEYPyQTN2TIES5lpM9Ny8qZPVhQj68OlqBe2ZwubNWIIOwwnUi4cxqd2nZ7BGEUgNcATDBHITQ4GLf1D2M6CDy3BpEESn9sEVDSNQFPfX8K9SrLGAOxnwgDkkIxa2J3npZZN1cQeHNbIbJLmgnC2bNnkZDgfkGqjRs3cjLLpLpHbca4FFzSg8lou7KObY2t1wK/nKnH1qPNEr2eIAg3je2PSd2lCPRjlVfdta5kt6kJ2HSqAt8etq1+C2C3KaPBrjazO+fVmWy3RxDoU5YStu+0vmlWi4H/NiCQI8ICEChvJgm7ioHVu09BrbUkCInhcrx0XQYrgMUfWpd6frS7CAcvVCMwMBD79u3HgAH9XbLHZ/Dq1Ws4tb38/OYAK0YQ+KDmfJ9GnRHbcmrxw2H3HzFQHYbPP/8cD17WB8MTZZCImAfB+ZVrf6Rao+eOGTZkV6PRvvzyJQD+ZF6E9rFsrUd7BCHKVIfBJnG4qxAEfZMIKn0TKMjcyUKNf2FPAkpymRTzf8xBeYOlMBJVgeybFI5/T0x2fjXZSIcQOFQbgA9+2g+ZTIaPP1mO6f+yURR3yB6fzsuXL8eTTz6J2trmLCxGEPig5nwfKvKz+3wtvtpf6FYPgk6nx3333YtVq1ZhzhU90TfB/cdVzqPi+yONTU1oaNSgrlGP7edr8fs52zo2AF4yCf15TibV96G1uIP2CAKF4D8BYElX8iDojCLUqHRcpb9qnRi5tXpM7iFDsLQ9uNrfHQ1GMVbsLUStVfZCaKA/5lw7BN1ktpoI7VtlPZxBgCo6PvP1AYglUjz8yEwse4dqvbi3kdQv5eK3NEYQ3Is3BQMfKFRgxa5c7kIzZ87kshgkEmHTShWKRjzwwP1YvXo1IwjuXVLOeqNKi+q65mflngIFduTWQqu3e6TTG0BzMQ7WHEaAzxuPyj2/ZW15+vAEpEZ0HvU3iopt0DahWqlDpZrqyNehvL55A0YGSkEek1CZ68JQH+8rRWmDbVBNbKgci29Id3gB2QDXEHjgi+Ogc5/Bg4fg8OFDrhnjMZoRBB4gCdiFSj4fKW7Eh781vyPuuONOvLn0TSTExwt4FaCyshIzZszA2rVrGUEQFFlbY3qDEXUNGijVzc/RUmUTtp6tQW65XUfBdABfA2Apj06si9ME4boB8RgYK4PUxwXgjBChSqnHxQYtLtTpcapMAZXG8gVO0tI39w1DsL9rN1un98OqgyWoUFgeL0jEIkzun4CbBlroUTmxnGyIowgQQSBySAGKJSV29d0dNdlmf0YQBIWzXWNNEOF4sQLLtjd7EK6ZMhVLlixB/3592x3rSIecnBzMmjULmzdvZgTBEeAc7Gs0NqFBqUG91TN0y7la7M2vB/3dqpFQAi12jYOXYt0BXkq+j5g8CBYJ/X0SI3BNr2CEylx7aXbUKtCXRaXKgPwaFXKrtThTRjLe9tvo/mkYH2eE3MVc9d+K9NifWw611pLMBsskeOdWYR9YHYWrr12XEQRfWzHH55tVosB/tjWnOY4ZOxaLFy3GuHFjHTfUxoiNGzfh2eeewbGjRxlBEBRZS2MUmFhVqwTFIJi3M1UabD9bg4tWsV2mPoMAnGDBio4vDB8PwnUAXgdgoYUQEhiAuwdHItbHJGJpW9VpgazSBhTWG3CmrK5d1CYM7IXRMQbIXCAIhibg80MXkV+jtrgeLcDY3jG4dXA0AuVMTq/dxRC4AyMIAgPqheayShrwn20XuJllZmbi5Zdfxs033yzoTN944028/vrrqKqqZARBUGT/NmYwNqGuXo1G09GC5YNUhB9OVuFIsd1jhs8B3A+Aadc7uDZ8CEIPAAtNOaUW5meMSkBCiO/EIWgMTThQ1IhKpQHHivjX8rhmWDqGRuggdSFt6VipEtvP1aBObblHKe1x/lW9IBMZEBcVDMpmYM1zCDCC4DmsO+pK5gSBjpKo1PZDDz0k6HRmz56Nd999F2I/P05FsU98kKD2u7oxLmtBoUF9o+XxrDkuuwuU2JNXC6X9lEdKK2ns6jg6ev983kb0WbsAwHxr4/eO7IaUUAlE3Cmud7cTFVoUVDXiULECRqNj+cnXX5KOgWE6SODYOHNEvjpajpwK2wyFiJBAPDYqBlRIhoo7hQW3XeDJu1H2vdnNXHMaao0W8fHxyMvL41Ie3dnMYxD8pVI8MKYbhiUzWW13Ym5OECKjorhqjrNnzRL0ki0EIUDuj1kTUpARGyio/a5uTKM1oKKm0V6J57+gqVI34edTlbhQpbQH12wA73Z1HB29fz4EgWwSQaCcUos2ulccxqfIIXc9uN/RefPurzL64becSpyr0aFaYene52vEVYJQpxdj7fGLyK+yJbC3D01EZlTz0QJ5D6h2Q3tVIPnOm/VrH4Fnf76A8poGxMbG4vDhI0hKSmx/kAs9zAlCTGQ4/jUiDn1j3UtKXJhupxhqThBCQkKxYMECzJ07R9B7ayEIYUEyPDIuGb1iGEEQCmAKPKyqU4LiD9pr60/V4Hhpg71gRSra0K298ezvlgjwJQgPAHgFQJz58BC5P+4fEYtwL2UI+0s0yK9uRHZpAx8fRznAuQhs8p9cJQi78huxj1xfVsqJfn5+WHC5pTCSVOKHyLDANqtAsk0sHAKLNl3g0qMiIyOxbt16jB8/TjjjVpZUKjWWvLEEL77wAveXtG5xuH1INHqGezHDdhsanjNsThBIVpuKZT391FOCTqCFIGSkxOHOodFICmFrKgTAFItYXaeEUs0vS7GwwYBfTlWirN7uxyARBLvVnYSYa2e0wZcgUIg91WSggEWLNmtMEqIChRUdcRVojdEPW3OqcLpSDYVK2x45IAmu70z/3GYKZrGYgisEgRjH2hOVyCqz9R5cNagHRsdaHs/QUUNggBSRoawSnKv7gM/4zfkGrN51kqvo+MKLL2HuHNIFc0+rqKzEolcX4e23mwWZMlLiueDUHmG+mQnkHpSEt2pOEMRiMeY///xfJE2oq7UQhCuHpeOa3oEIY4WaBIFWodSixqRHw8ugSIRVhy/iXKVdwblfAFzLyw7rxCHAlyBQJOIbAOgcx6Jd3S8Bw+P9IfGSZxzFGpwoaeDOoXSGNmMGSOxgG4BFVF4cAIm1U92J5s87s+YKQThVpcf2s9WobLDdsHMv64lgsa36Fx01BAf6IyxYzrapmxEo0wVg3jf74ScWY/To0fh91y63XbG4uISLoP/444+4awxKjcO0Qexr022AmwybEwT6T/Pnz+fWQaim1+tBBOHDDz/E9HG9cGn3YJcCmoWal6/baWpqQmmlAoa2n+M2t/nDqWqcKFVAb6uJQA9hdvbjwMbgSxDIJKU6kkasBRUIlkvxyKh4BHawYhJ9h289W4sTF5VQqPU2ebJWmJCs2gwAlPvUnP/U3AQnCL/m1OJAIZ2JWZKVAH8JnhibCKnY/hJQZUeKRWDxCA7sZie6GuCHh744yo3MyMjA6dOnnbDCb8jZc+fw4gsv4quvvuQGDO0ZixsHxiCRuaP5AehkL3cTBJJZfvzxx7FixXI8MqEHhqWEOjlTNswcgYtVCmh1jlfErFXr8c3RCpTZKtbSOcXVALYzpPkh4AhBmARgMYCR1qbnTuiGYP+OO3NrNIiwM7cWR4vqoW2bbVJ469sAlgMoAGC9+wQlCDojsOF0td3c3PtHdkO3UHGbLhyZvwThoXL4SzoOW37byLd73U9yyx4gCLt378bTTz+NPXv2cNcbnRaJ6wfGIibYd1KFfXGl3U0QSIFzzpw5+OabbzBzQncMTQnzRZi8as7l1QpQ5oKzbcXBMhTW2qRE0nfkSQADnLXb1cY5QhAo1P5De2f0I9NicVVqAFr5GHYrpufrjPj9Qi0KqxXQkxpR642ED/oBIMlERSvd7BKEq4b0xvAoPfwd1EHYna/A7xfqoNHZRt/yIVWkkRAcKEN4CDtqcOcm8hRB2LFjB1eo6dCh5poPY9IicP3AOEQzguDO5YW7CcK27b/hueeew4H9+xhBEGAlaxvUUCg1sBJLdMjyyXoJfj1ehAaVDUmoBECpSvyiHh26aufr7AhBoLv/wOSatzhmIHf4MxOTW3WXuwu2w6VqbM+t5ZS16LyqjUbxE3To2F7ZT7sEYYxJatlRJcUtZ2vwR56thHOwTIyHRyUgiIfXhUhCaJAcoUwfwV3bCC0EIT09HdnZ2aDsEne0TZs24YknnsCpU6c481OHpOCqzAgES7xfR8QdeHjKprsJwptvvomXX34F9fV1jCC4uKh0pFBZo4TBQa0a68tS+AEVxruosCmMR3EIFHBP4n+stYOAowShv0lsYqK13VmTeiNKYlul0B0rQI/Tg0UKbMiu4mOe0hYphZHPU9guQXCmFoPSIMKWs7U4Umir2DhrTCKiAh2TVQ4LkXMaCawJj8Dja8+hoVGJ1NRU7Ni5EynJlqmnQl3xp59/5s6qz+c2Fw66dmgKrsqIQBAjCEJBbNeOuwnCvHnzsGgRxTqDEQQXV7KsUgGd/bLNDlteebgChdUqex+PVJgjzWGDXXCAowSBIPoCwJ3WGRBSqRTzJrpXZIYurjOKcLikERuzK9paLmIq2QAmA7jowLoSQSBRKAtcKI1z+rB4hDqg97DzfB1+y7UlB34iER4dnYhIB1NDKbOBjhqCAth5tQPryavrK5sLcOFiLeLi4vDBBx/ipptu5DXO0U7r1/+Axx57DAUF+YwgOAqeC/09RRAC5TI8NKYbBiQymWVHl4s8wOXVjU4FJbZ2LaU4EB/vzEWdyubDlX6AQwFQijtrbSDgDEEg/5T2awAAIABJREFUEXOSXbb5zHp8Qg+E+/P5UHd8Tchqow74s0SJHTltkgMq60kZF5RL1n4lJsupUBI8kQQL7duIIH/cOywWoTJ+wYI0VyIIO+wQhIE94nB1qhwO8gNulnJ/CciT4C/lNw/HUe6aI7YVi/HV9iMIDArCPffch/ffW+YWIL777nvMnj0LpaWlnP1pI7rj8vQIl4qAuWWincyopwhCdGgA7h2VhMw4lknnyBaiOgt0rKCxEpJzxEZrfZf9UYJqpU24AR0zUCrRg0JcozPbcIYgEB7rAVxv/aUdEijHE2PiBa/NwKlpaYB9JWoczG3VIUDvZXry3kcZj3YyFPisI42ls6kk887hgTLcNzyGN0Go1jRh+7k6ZJXY8hNXC1yRPgLFI1BRGNaEQaBCK8Uzq5sDB4cPH46DBw8KY9jKyurVa/Doo4+isrKZ4DKC4BaYbYy6kyDQl+9z8+bhtcWLMXZAT1zXJwzRMuej7z2DiPdchchBbb0aSi6OTPh5fZ9dj5Mltfaklyl1aYhJPVf4C3cSi84SBJJdngkg3BwHCqi7b1QKkoOdNWuLKgWblCkN+L1AheyiVmMOKE2A9AxI2+A3F9aGjiReBTDM3EZwgAwPDo9BGM8jhn0F9fj1DDkyLBtpH9wzLBZxwY7FH1jb4Y4aAv1BxxWsuY6ARm/EI19nuZ0gfPXV15g5cyZqa5v3BiMIrq8dHwvuJAgqlYrLYHj77bdx+6U9MTEtDFIRIwh81oUIAWUrNCi1Dosh8bFPffRiGZZuy4XKVk/hrEkZ+AxfW12xn7NvGIqW+xXABGsvAr0ESX7ZGRe69QLQBiqo12HbeQUKKm2zAUz9KTOBlG6eJ8++i4tIaZB0PDHV3I7MX4qHR8bxqjlBhGZvQQO25Ngeb12aFotxKQGCYMNIgosrbTbcnCAMGzYMBw4ccEsmwyeffIIZM4jDNrebL2k+YnA0fVa4O+8altxJEIqKivDcc/PwxRef4/7RyRidFtE1QHXxLunZTkcKdQq1oHEH9qb1n90lqFPZHDOQJg4dMwhb99tFXLxtuLMEge6DJIkfA2Dxi5D4iTAuPRYTkl3P3c+r1eGXM7WoqLdbvpPmQNkJP5kyK44JAG6sSVL6X9a2HhubhIiA9mtOVCgN+C23DqfKbDMq7xkehx4RruPSMjciCXTkQPUbWHMeASIIj64+xaldDho0CNu2bUNUVJTzBlsZaU0Q/jmyOyb1joDYQX0NwSfWyQ26kyBs2LCR8yAcO3aUEQQH9hGlM5LegTviDqynsemCCvtyy+0dYfxh+shlLp9W1s6VNwtFytFZP5W/s4iaC/QXY9qAGKRFOp+Wd6FWhw1tk4NCACsA/M+kiujA9my1K0mgvQmAqldaNL4E4XCxAj+esj0KoWOK2wdGoVuoa8cL1vNiJMH1ZSeC8OxPuahTqLhUx48//gRXXnmF64atLDCCIDikvAy6kyCQBsKzzz4HvV7HCAKv1QB0eiPqGtRQaTyjVaQTy/Da5rMw2NZmOAHgDgDN54us2SDgCkEgY/eavrgtPrfIaFSIHNMGxiIh0PFLnKvR4tecOlS27jmg4kokmUwpl0KmqhCjWWqKr3CYIND+I4Lwsx19hkvTojEmOQguhh/YbmEREMHFJMh4V95ivwNLBKioy/8O1WDf6SIEB4fgvvvuwzvv0PYStjGCICyefK25kyAsXryY8yBIxGLce2k3jEplMsttrQtpHNQpNFDxLN/Md43b6/fajiKobeMQ6Nz6YwDC1v5ubzI+9HfH3962N0dPUjpYtfCdS8V+yEgIx+U9gxEh43+ZnCottubWobyu1WMFCkYkVZKvKfNRYKxpokQQ/m1tl48HoaJRj225dTh90VbJ+Z+DY5ER454SznTCEB4SwB03sOY4AhQ8TTGlb/zcXJNh0qRJ2L5d+HoujCA4vjZCjPAEQQgO8Mf0kUkYmmyRIS3E9DuNDc5zoFB7nBwQgJvzNdiTU2YPy42mmDM35FD4/tLxf3O3fq/dTMGBqdYBi3KpGIO6hWNkchAieZCE87V6bD5bg4t1ytZSXshzQMGIq92opU0EgfQQLBofgnCqXIXvTlTaVG6kio23DYpBryj3EASaKAkpUXloRhKc+1HWqfR44rtmCWRGEJzD0FtHuYsg6PUGLF68CAsWLECf5GjcPDgWPcLbj1PyVpzcOa+OJAd0XyqRDK9vzrF3i7sB3AWgWb2MNQsEhCAIZJCUFVcCsPmEpayGjLgQDEkMQvfQ1gV+cusM2HW+jiu6ZLQ9K6JrUMzBkwC+dXPuql2CMHNsCmICWoeL6GdWmRLfn7AVcRraLQQTUsN4p0k6u0eJJFDdhpAg5klwFENzgjB27Fhs3LgRwcHBjpppsz/zIAgKJ29j7iII1dXVWLjwZe446h/DUnBVn0jIWMCpzbroDUZO68BTMQetbYwXt9jlAPTAfstUn4H3nuoqHYUiCITXw6ZiTjbYSSVixIfIMCAhCH3jgiyK0xghwoFCBY5fVHGeAzuBJGSPfEOPAljLs6aCK+tnlyDcMrI3+oTq4NdKSYcGvQi7C9XYf87WjTVtQDQGxHtGfpUElIgghLC6DQ7tgTq1Hs/+eA4ajRb9+vXDRx99jLFjxzhko73OjCC0h5B7/u4ugrBv334u/uC337bjjhGJuDwz2j034MNWiRzU1Kug1thWtPX0ba3KqsO5Ulv5e5NH+nZPz8cXrickQaDw/DkAFrd24yFyKeJD/GGuWExf3vk1Giha30CkKjMdwM8eIAc0dbsEIT0hAtP6hEDWSk3r/DodvsuqQYOSVDz/blKJH27sF4W+sZ6TX2UkwfGfnkJjwNJt+SioUnCeg/vuu1/wQEVGEBxfFyFGuIsgfPrpp1zxrbq6OkYQ7CyUwWBEtZeQA5peSaMRn+whR7RNo1R5esfYqtsJsQF92IaQBIFgoBDeuaZaDULAQm/b2zxIDmjOFHBJcQ4WcsuhATI8PDIWAVL7EsdnK1X48gjJMli24anRGN89GKFSz8bAEEkIDvJnFSB57kKdEdhToMLnv5PAGnDDDTdg/XpSFBeuMYIgHJaOWHIXQXjvvfcwa9YsToeEPAiXZQivneHIfXpTXzomrqx1T30FZ++TspVe2VZgbzgFvr9sSpl31nynHCc0QSCQYkxBH3Su42qbBuAHJ+sqOHvtTFMKJcku/9XohTtnfBIC7RAEfZMIWeVqrD9ue7wwpW80RiQFC16fgs/Nif1EnCQzBS+y1j4CRXU6vPAjFQFlBKF9tHynh7sJQqBMituHJ2BMTwvled8BSOCZuqMyoxBTpOPrDw+Uo7JBbW2Ozj8o3ZGOsVkzQ8AdBIFsUnTXFADfuID2eAD7AdjU6nTBJp+hlKdElSBJQMOiPTUx2S5BKG3Q4uujlai3k9t7bZ9IDO/WcalPFLhIJaJJUIm1thEoq9dg3g/N0uwTJ07CZ599hpQUm6KlTsPIPAhOQ+fSQHcQBJVKjbff/g8XgzC4VyJuHBiLbkFGl+bZWQaXVSpAegfe1siHW9QIrNhjN1iRguypuiNbRDcThBbzJDp0CYDnAFztwGahco1XAjjZQYtFBOe/AO7nSxAKajVYedDWe0AZBdekR6BPdMdmFZALlNIfGUloexdWKHR4dXM+GhqVSExMwjPPPINZs4T7qGAEwYGngIBd3UEQjh8/wVVx/OXnn3DD4ARM7R8Lscizx4gCQiSIKTpWuFilAAUmemtT6pqwZIfdYwbSQ3gcgN1cSG+9H3fPyx0eBPM5U14jeRMGmuISrmrjhugNS/EG5OOt9FBAYmvTIYJgI7c8Z2J3hNhRSs6r1eLTg1Rp2rJN6hWBsT1C0Upco7vX1sI+iSkFB8oYSWgD9QaNEV8frcL+nFKuWNPdd98NCkQTqlkTBFbNUShk27bjDoLw1Vdf4d5774VWq8VNQ+I5gtCVG+kcVNQ0uq0qo1DYKnVGLNlhN1CRzh1IZp/iz1gzIeBugtACNEX2kYIIEQbKBaI63PEmJUQ6RigxeQvoOMEb6KddgnD5kHSMidbAPExRa/TDoQojNh23dVtd2TsCY3qEetVmCw2WsZiEVlaEvv/OVarw2sbmQMW77roLX3xBat7CNEYQhMHRUSvuIAiff/45pk+nwHd0eYLQqNahtl7Vmn6No8vl1v4aQxO+y27A2VK7CQv/sSeS59YJeblxTxEEL4fBZnoLTZUqLd7uYUFyzB4VCwr+a2kXFVp8uNfWe0BBjVemh2OUF0qvkkZCaJCMU19kzRKBvCoVXt7QTBCuuOIKvPfe+8jISBcEJkYQBIHRYSNCEwSDwcB5lh544AEEyf1x0+B4TOzdNQMUqSKjQqkFBSb6SqtRG/DO70X2pvueiSB4poqUDwDG3hD2FykDwIekumv95/mXp4BKWv9NEHT4cC85QCxbcnQorugVju4h3glxoFwK8iaQiBVrfyNQUKPGa1suQKPRITAwEI899hgWLaLSH643RhBcx9AZC0IThJKSErz22ut4991lGJ6ehGlD4hHr37XeKUQIquqUnACSD3EDbvvUqPR4Z3exva20BcDTAI44s8864xjvfHt1PNIUYPklAEqztGjmBIGLiq3XY8V+2802oWcYJqV591cFkYOwYBnkMikoRoE1oFZtwPfHq7HnTLNXaMaMGfjggw+4mARXGyMIriLo3HihCcK6detw0003cZOZ0j+WIwhdqVEwYgs58MX7pt/4xwfKodLYTZB7CcCLvnhf7pgzey20jiqlaFLQpEWbOa47YkwZg3SetadIjZ05tgJJE3qGY1Ka95d+JWIQERoA8ihQtgNrwOkyBd7Ycp6D4uabb8bbb7+NpCQL3SynYGIEwSnYXB4kNEFYu3Ytpk2bxv1eiCDcNDjO5Tn6ggHyFBiM3iOd7CxmKn0TNuUqcLSg2p4JOl5+wVnbnW0ceyO0vqIrANwNwCJvoUdcOO4Z2Pzib81V5S8RY0JaOMakCFvsx52br4UksLgEIKe8EW9tzYPOYEBSUjeuWt9DD1GKtGvNmiDcckl3XJYeAX9W4Mc1YNsZLSRBUKvV+PzzLzBjxkMIDpDhuoHxuCLd+z8EXAWYvAYarR71jRpodd6nceDo/V1U6PHhXrvHDK+ZCIKn9XccvQWP9GcEoXWYqUIlscme5l0kYjHmX0YVrlsnCMmRwbiidwS6h7rulvbILjBdhBQXA+SSLh+XUNqgx6o/y3G6iLJtgSeeeAJLliyBWOxavIY1QbhzZAom9I7o8vnz7t7jZ8qVeG9XEZSqZgW9+fPn4+WXSVnX8XbmzBn8+99PYOPGDeiXEo1bhiUhOdh3AvQcv2NwqYsKlRaNKp3XpzHyvb+yBi0+2mcbXA6A9NXnm3R4+JrrtP0YQWh9aemz4HsAl1t3WXBlD66qY4VSj/f/sGWho1JCcXVGZAdLOTi3Z2X+Ek5UiY4cumrTN/lhf4ECK3ed4yC4/vobsPi1xejbp49LkFgThOmjumF8b9onrLkTgZLGJnx97P/bOxMwuaoy7//vrX3r6q16z7539oQQYtiCkIAKgqIswgzfMzPog6M4juI4jst86uegDjPzKIjLDDrqiKJsCg4SZCcEQgIBsnWnt3R3el+quvaqe77nvVWddLqru29Vd1dX1X3PQ8jS5557zu+cqvu/57zLEI6cTPi/z0Qg7N27F1dcQXHcoOZe+Nj5Mz96msuxz7RtCnrkHQnDHyysF+qekSj+8/VuhCdGfKRzh7sA0A6y7gsLhKmXwBPJkNHn1Pro5mqsLjPj3UGB370xMSpXQiCU5PXiKnXbYLeZodcFcrhjBPe90IZoLAan04VvfOMbuPPOT89oTlkgzAhfxhf3hwQePzKEl96dmUCgoEgPP/IIbrrxRtXV+fLVHnx0a2EaKJKXAh0lkDCgnYNCKyMRgb3Nk9ohfD4ZNKnQhp32ePT6/a8V1H3JNKDn5Gp220y4Y0c1fnU0gJbTiW3o0SJLEnYsKsIVBeAXTaGZaUfBbJrZ1rpW2LlUr8MbxUNv9uLt1sT83nnnZ/DVr34FJSWZCz8WCPMzwxRe99mGITz8xswEQktrKz796U/j948/jpoSB67bXI0ttdlL454tepTUyB+IIBiOFoS9QSpuQpLQPKzgv/enDLv8DwC+kyNB+7I17SnvwwJhavwXAfgRAMrweKbQ28PfX1yXMmRnuduBy5aXor40v+wPJsNgNRths5rUYwc9lbiQ8FLTMP77lRZ12OvWrcfd374b77vqqowxsEDIGN2MLqS53NfixQMvUVZf4K677sLXv/4NmM3pHaPt378fF1xwgdrG+UtL8X/es7DgDEzpSMHnD6vBjwq9TJZDJykOvkVmZoXOYLrxsUCYmhCFh34ewHvGVqNdgt1rPPjfIxPdG9fVFuP99R7Ysp6Ecrqpzvzn5NlAkRcpK6SevBze6hjBz/Z3YNgfVuF97Wtfw+c+9zk4HI6MYI4VCJ5iB27aWo2NNYX3BpoRnDm8iEwID7R6cf8LCbF3y6234pvf/CYWLtCeqdPn8+EH99+PL9x1FyhK6kUrynDr+dVz2OvsNk0ujIFQRA18FEiRlTa7vcnO3aYQCC8nAybR77ouLBCmn/5HALx/vLujy2aBL5h4cIwtm2ud+GB92fSt5lkNEgY2iwk2S2JHQQ9lMBjHE+/04tljCSG4adMm3HPPPdi1a0KAzWlxRKNR3HffD/CZz9yp1r1wdTWuWe9BGWfhnpbdbFQ40DqMH7yQyJeyceNGfOtb/4KrrtKeZLapqQm7d+/ByZONWFDmwEfPq0N9BcVTK4wy6A2q4iCXMzHONulObwS/erMXvnBsfNMBAHcA+Nls3zPf2mOBMP2MXZ60aF04fVWgUAUCjZ0Wi9Eoq1khHXZ9GDC+3DSEX7zWiUg08SVC7nF0Dl1UlF4SrmPHjuPLX/4yfvvbh9R2PrSlFlfWl7OLo5YP1SzUGSsQnE4n7r77btxxBz0Dpi8k7p544klcd921CaG4wI07Ll0MA/LfvTGxY1CYhojTzaw/JuHl9hBeaaBEwhPKJwD8cLo2Cv3nLBCmn2E6ZngjmbJ6ytpkm3BenQtXafBgaBiIoHEwBu+IH5VlxdhcY4dbzg9rYYNBhtVihMNqUo0YC7n0+WN4/HAPXm5MGCuuWLECdFRw6aWXpjXsxx9/HLfddhsGBxPHmjecV4PdayixKZdsEOgYjuChQ114+9SQGgGR4lrQcZGW0tPTgz1XXok3Dx1Sd9EuXVOJ69fnv3vqwHBQNUKMTnT104Ilp+q0+2J4p8uP4WAEHrcTm6sdKDYLSFOIOPrpsf4Ifn1wYi4dACwQki+FOTXROdqZbye3nKY8fDYZZJy/wDWpB0NUGPBssw89w34MhWLwhhX1zdRmMaPcYYLHJuP99FaZExmvp54J+pI1GmS4HOaCdoekd8Rnjg/gtwdPn/ki/eC11+Lbd9+NlSu1Z3l88MEHcdNNN6lQF5S7cP3mKqyrsuXoci+8bkUV4NkTA/j164ksfmSk+IUvfAEm09QCNxaL4aGHfoubb07M3VKPAx+/eDHK7fnr2ROKxFQjxFA4mneJlsavzPYRBQc7/OgY9KuRbSOxOKxmE8rtRpgNQH1VETZXWWGYxGa8oS+IXx6aaEuWjIVA2R2Dhfdp0D4i3kHQxoqskV4FMOUxw5JyB65ZW4ESs3JOqx1+BftbhtDnj6I/EEM4uV09/tYmg4R1VU5cXV+mBmLKh0K7CRaTAZRCulDdIYeCcTz8ZhdebuxXp4SyPP7oxz9W4/FbLdOfQx8/fgJf/OI/gJL8ULmivgIf3FgJm5E/ftlc4y82DuKn+xKujuvWr8d3v/Md7NmzZ8oueL1ebNiwEa2tLapx4pZFxfjEhYlIqvlYCsnW4ORABH9u8qLHG1LDoqcqTosRbqsBFSVF+MAK54SXrykEAmXzpTSuKfNC5+PcZ9Jn/obSTu0dAPVT7bqsrXTg+o0eSMn8p8cGYnj9lBf9lDOdDICU6R/6JBLWVzlwTR4ZOlKOJ/rydDkt6rFDISZ92nt8CI8f7oI/lHD/qqmpwe8efhjbzz9/2vH+6U9/wrXXXodgkGyfgGs2VKoCgUt2CRzvj+HXh3rQeroPBqMR9917L26//fZJO0HBgrZtOx9vvHFArVNXYsVnLluKEnv+HasFQ1F11yAcjYPGle8lJAx49VQAL5zohqJhPJS5tthqgMUg4+qNtai0JGyKTg6E8OBbfamOWd4F8LcAnst3VjPpPwsE7fRoP3k/gElzOK+ttOO6DZU4eDqEfU39CMXiCEcVTQuYuuG2m3Hdpjp4TBE4aH8szwp5OpAdRqnbXnC7CaGYgl8f6MQLDWczwFVUVIBC765bt25SkXDo0CHccMMNaGhoUGdz29JyfGRLDcr4dCHrq5uOGZ460odHDiXOnFeuXIV77/0+Lr+c7JAnln/8xy/h7rv/BYqiqOt6fV0xPnWJdtfIrA8wxQ3p2TnsC6nClhIuFUqhkYRjAkf6o3ipeRgDvoT4nq7Qy4yDwslbDNi+qATlNgmPvtuPfv+EuA+kICgfz2+ma7OQf84CQfvsEis6rJrUsoy+RGgHIKYgLXehZbUV+PAKq2rRbjbKeR/emHYQnHYTipxWUMyIQik9QQn/89opvD0mTSx5Mzz++O9x4YU7JyRzosh7f/VXf41n//zMmbe23fUUnrc67+c4X+d077E+/Or1hECQZRl/99nPqsaKVZXn7uh85Stfxbe/fTfC4YQrc1WRBV95/wpYjPkTAI12DCj7IgkcDS/ZeTmlcUHftQKnRuJ4tnEQHYMahQJ5ZBkkWMxmyAYTvCMjqcZ/M4Bf5SWYWep04Xx7zxKQaZohWwSKtjIrYQW3L6vAniU29WFRQM/RcxBWlTlhKqBQzU8e8+Kpd05jZEwMDMrySGmhSShs3Lge0WgMTz75JG688Qb1ATO6pfueZWW45YI6WOTCeZPLzsdu9u4SExJ+f7gbfziccG0jkbBjxw788Ic/xNq1a9He0Ynzt21Dd3eX+mCl4rCY8Je76rHVkx/zRl4Jw76wGipZT4U2SALCiEfe7kFT78hsHKWwQNDTApqlsdIugieTtmiHgcTAtVsXYY0buvGBp3FXlbvUbfhCEEI/f70LrzT2qxbTWkttmQsf2lKHTVX6CDKllct81NvX5scjh7rQ7/VPe3tas4s9DvzTnnOyvk973XxUoCMESstMRwp6L+TC+MfmMN5u61XtLrTYKaRgdiuAX+ZlWt5ZWgC8g6AdJBkFUKaeGgBvab2MttjNRglmgwFXb6jCMrchbzwUtI5Raz1KIV1SZCsIofDT/V040DKIUHRqVzESRBR187I1lbi6flLzFa0Iud4sEaBdBIqSGY2f63E0vvmaEju+/oHls3TXuWmGhAG5LvYPadten5te5G6rr3RG8UpjN6JxslvQLuoBPEUesQDIYNEHIK2Lc5eI9p6xQJieFR0nUE5X+pYgPzVNIfTIqt9ukuEpdmLXEicWuPLP6HB6NOnXIENGt9Oqhmym7d183lF44oQfrzZ0oWswkPINhXZOKt027FhWjvetYXGQ/mqZ2ysefasbzxzvRzAy0bKfkpSVOsw5LQ5IGJDAGRgOIEaGT1ymJHBiGPjj2x2gYyZfevkmXgTwJXJ6AEBnU7qBzQJh8iVFduZksrwRwL8m/zztR5CCJZGFbF2JHdsXuFDHwiAlMwqy5HZZVW8H+nO+Fl/ciB8/1whvMIqwIiEcicBkNKoxDspdFtx8wSKUWvLj7Dpf52Am/d7b6MPrTf3qA4Pik5hNRlhkYOuKGly9KrOkXDPpj5ZrSRhQzgTvSAjBiXkEtDSh2zp09NARlPHE4Q6EY4oaXCkNt8/XAfx9UiQk3JIKvLBAmDjBlF6PDhy3A/g8gFVa1oDZIKPEYUJNkUUNt1zryj9faS3jnO06FGSpyGmB0ZjfQoG4nAoY0Xa6Vw2dvcQt68bGZLbXRLbbI/nW4ZfQ3juMWk8xau0CspR7oi6eFAaBYEQX6Zjnch2QUOjyx7H3xAC8oUQAu1GjVA33pZg4lMiDfJ7p+KFgCwuEs1NLwoBiHVDC978BsEXLrNOOQbXbhiqnEectKkYFZ+fTgm1CHcrt4LSZVY+HfN5RyGjwfBETmIIACQPyTKDESiMB8ophXLNJgPI4vNrmU2MhULRbjbkpaBYoR8+XAZxOxy5tNvs+122xQAAoVu5qABdTDh0AO7VAp/PlZR4nSqwydiwtR7FxQspQLc1wnXEEKJU0JcShnQXKHMmFCeiVgCoMonHVANEfLKxAR7k4px0jcRzuCqBjMIiekYhWLyXyJd0H4D8ANAF4MxfHlmmf9CwQyN+Mdgx2A6CA7FMHZR9DeF2NG04TcNHycjhkFgaZLr6priOPB8oUSb9MLBTmAjG3maME4nFK4hZHOBJHIBRFPBmPIUe7W3DdavcpON7rR+tgCF3esFahQL6lZMz4QFIkHC0EMHoUCDRmMj6kIBjnA7hO60RuqCuGw6Dg4hUe2CQWBlq5zaQeCQU6diCr8kJNBjUTPnxt4RAgw8NwhJK5JY4TSChwmT8Cp3xxNPUF0DQUUSM00vxoKEMA9gJ4DMDLAJo1XJOzVfQmEJxJ4xJKuvSXWmdlfW0xSq3AeQtL4TLqzhVWK6Y5racKBLMBFpMRZK/AhQkUCoFR+wLaNaDjhELKmVAIc3TKp6BtwI+jfRF0Dvq1Bl0id8hnADwO4FkAvfnIQk8C4ZOU5TUpDDSlyllb40a104C11S4Um8Hx83NghdMuAh07kCGj0z4rEa9zYFTcBb0RIENDEgQUDjlGBogpYjHojUmuj7dlOI6u4QAO90bROUBxkzQVcoeknQSKyEi/BzVdlSOV9CAQrqIMuxThOBnwaFr0yytcWFZqwYpyO0ptsm4jH04Lah4rkJGo1WJSs+yRUDA9YP0RAAAgAElEQVTkcSyFecTIt84yARIGZFdARwkU3IhiL3DJLwIkFPp8AbzYFsSwX/PznnKGkwHjvwM4ki/hmwtZICwC8AUA7wGwgfIhTbcMKbgRpWxeUmqFx25kP/bpgOXAzylWvsWccI0k7wc+fsiBSeEuTCBAxwbDI4nMirRzoPE8m0nmKAHycWwciGDAH8GfTw5rFXpkxPACABILdwPoy9HhnenWtA/NXB9Aiv5RTONvJuMZUEwDcmOcspQ6LdhY48SKUgvKHSaY2btuOmQ593MK2UwiwWgwqLYKDptZ3V3gwgTmkwAdIfiDUQhFqMaHaUTtm89u8701EogqAq1DEXT6YniucUBrsCU6n3gNwH8B+A2AnN1GKrRvUPJM+CiASwG4p5tjh9WMDbVFWO8xo8SWCI/LJf8JUL6HhFhI2CmQzQIXJpAtAokwyGF1l4A8EXi3IFvk5+8+oZhAhy+KhoEIXm3q19qRFgBtSU86isqYc6VQnojVAO4C8BEAlQCmfCJQIqXF5Q7sXuaCy2KE3VQoGHJufc1rh2hXgeaaBAOJBBfbKszrfBTyzcm2gIIZkX3BaK4E3i0o5BmfODY6dghEBdqHozjQ6UdDt1crgMPJY4e/0npBtuoVwpPxdgB3AiCbg2mzqxTbzbhpcxUcRgEnnyVka53N+33IVkE9cpAAp90Cp82kpp3mwgRmQoDiFfgCYdXgUBGCXRRnArNAro0LIBhV0DAQxSutXvR6NaXhJmtHyvHwWQAv5QqKfP6GpCRKo7sGFN9gyrHQw+HaTbVY6pJgN8vTWyzmygxxP2adAAmDUfMEt8sGh42CanJhAtoIkJEhZVKk3+mtkeMWaOOmt1oUVykcV/BCiw9vtPu05HggI0Y6angewPW5wCsfBQL1mewMfgyA4hlMe8C8fnElrl5qgVE++2DIBfjch/knkNhESKwLt9MKB8dWmP9JycEekBgY8iVEARU+PsjBScrRLlFODb9ixKNvd6Opz6+ll7TIDgH4XFIsaLlmTurkm0AYtTX4jBYaFrMJd+6shp2ND7Xg4jpJAmSzQMcQLocZMh9D6HZdBMMxDHqDHPJYtytg9gd+ZFDgqSNdGA5EtDRO3g2U2+Hj8xU3IV8EAu0SkMviH6bzTqDtY5MsYffaKmzymMB5frSsQ64zFQGKrVDktMBkNCSPpiSwbiicNUO7AWoGZSHg80dVmwLeISic+c3FkfzP4QG0DgRU11cNhZ57XwRwHABlj8xayXWBQP0rBXA5gAeno2I1GeBxO3DNqiJ47BQOgQsTmF0CFLGRDBwpLTXtLpAgJbHABo+zy3muWiNvg4QgoD9A/YIml0TKh8CFCWSTQH/UhF++1gpvWFPgLMrtQMGVfgJgJFv9zHWBsBbAV5I2B5MyUb+0TTL21FdgVZkZhsT7ABcmMOcEaFeBgjJZLSRIE2KBhAMdU3CZfwIkBsiIUEl+JVDeg5FgRA11TGKBCxOYbwKPNQTR0jOIwYCmzYFvJcM1U7CFOVe1ufotRv3alkyb6ZpqAimOwUJPEd6zwIFaJ4dAnO/Frvf7k1ilFNUU9nn0GILEAnnR8C7D3K8OCkwUV7cJ1BMDdWdgNPfB3N+d78AEMiMwHDPgwTfa0ReIa9nNIruE+wG8PdfJn3JRIFgBXAjg6alQ05cuRT/cuaQEG6odMEJTru7MZo+vYgIZEhjNFUGCwZg0iKEPnSzLqmjgnYbMwNLOAFmHx+PJ4wIyIVAEyLCQwhuz62FmXPmq+SNA0RifbvajfcCPbm9ouo68AeCeZDrpOTtyyDWBUAHgfQB+AICEQsrisBixoMSOzdV2rCqfNtXCdKD550wgqwToCOJM2mrj2ZgcUnKnYTT6Y1Y7laM3OysEEoGIRk8P44qCcITSJMdYDOTo3HG30iegQEKHX8HTR3vQPhyZLrcDJXv6etLTQXP+6XR6lUsCYSmAv0xGkqLARymL22rEtkXF2FTjgtPIuwbpTDbXzW0CJAxMRlkVD4ndhsTHk/4/Kh4SxxVyQXlR0E6AQkcD9LuS9ChQR574O8UeiMTiqrsh2w3k9hrm3s0Ogf5ADM81j+DUcAhD/vBUjZIr5D8B+D4ATUEW0ulhrgiE9QA+CeBjAFKKA/pSLHdZcH6tHVtrJ9UP6YxdF3X9UYGBkIIFLvbqyOcJpyMJEg+jSahSHU2oESKTxxZkI6l6WajBwbL7MR/1FBgNPZwwEkwdhpjqxuIJK24KV8yJjfJ5lU7d95iQQGGILTJbh2qZZX8MONYfwaG2IbQPUSTmKQuJhO8CmFJNTNfI+J9n95sjde9WAvhHAB+eTByYjTJWVbmxrtKGVaUcFlfrJAtIaPbG8c5pP65ZNaWtp9YmuV4OEyAhQEaSZ0XCWcGQzQ86PfTpCGBUFJCdgPr3UVeCHGbIXZsbAgPBGN7uDqHMYcI6Dx8La6VMRw5tQxE8d3IArYPTxuf4ZwD0a9YUWDa/N1IxoQRLlJziVgAlqSqQOLhoWRnWVtpRyutK67pS6w2HFfxvwzB6hoN47/Ji1Ffa07qeKzMBJsAEZoPA8d4gfn24F5trnLhqdSk4uG16VMke4YUWL5r7g4hSkofJy/8D8KX0Wp+89nwKhCIAfwfgDgBknDihUO6Eq1aXYWOti70U0pxx2j045Y3hv/a3q1eSp8eH1pWn2QpXZwJMgAnMjEAgLmFfewgvnuiCx2nGrmXFqK+gNDpc0iHQNRLF650hHO0aQSA8ZajmbwD4cjptT1Z3vgQCWWD9TfJoYeFknbtuXbn6YJuvTs4G4PlqwxeJ47EjQ2jsTXjAsECYr5ng+zIBfRM4PRLHw0eH0DuU+C7avsiNy1eUwCTN2k64bgAPhgUO94RxsG1wqnwOZKxIL9+U0HBGZb6evbcA+BqAZal6T8ZW168vV48VuKRPgHYP2v0C//lK65mLWSCkz5GvYAJMYOYE2obCePDNXgSSeQdK7CZcvryYv98zREvGi4e7w9jX3A9vMGX0RVJeRwFcDaApw9uol82HQKAgSHROctFkHb9hYwXW8BZUxvMaiCr4xZv96BwKsEDImCJfyASYwGwQoAfaK6cCeLmx90xz2xaX4dKlRXAY2FU9E8YBEgk9Ybx0sh8joZQigf7xMQAfyaT90WuyLRDIBeHvk/kVUh5C3bjRg5UeOziUfWbTSm5Ee1vD2NdAuT0SxWGzYsfSMlxYQ0kxuTABJsAEskeAdjSP9gTxm7e6z34nWUzYs7IEG6rYFiHTmQjFgVc6InitqRehKIVDmFDoTOdHyWduRrfJtkC4CcC/AqhO1dsbNlVgZbkVhiz7bWdELkcvisQF/vXFToTHLJhl5XZ8eL0HdtYHOTpr3C0mUNgETvSF8JvDfWrMi9FS4XbgypVuLC1m1/VMZz8YAx4+MoSTvd5UbsR01PAmgN0AKOpi2iWbAoGiG9HuAdkeTCiXranG9moz1KR4XDIm8O8vdmAodK6aXOWx46ZNnozb5AuZABNgAjMhEIxLeLUjgOeP95xphmzN9qz2YGutnQ0WZwDXH1Vw/75O+MIpkzuSu8MjAG7M5BbZFAg3JHNZTwiD6LKZcfMmD6qd/IqbySSOXvNMp4QX3205pwlS6VdvWoAF5mkjcc3k1nwtE2ACTGBKAm+e9uPRd859kTUZZNUgfZWHjxpmsnwoYu73XmpHKJbSpuMVAFcCSDtfQzYFwm3JpBITONyypQLLymzzYjE5k0nJpWujMOJbe5sSCW3GlCWlVvzF1kpmm0uTxX1hAjok0OpT8FSDF539w+eM3mI24aaN5VhcbNYhldkb8h+bQnjtZHeqMIokDMjlkXbw0yrZEggUTvn/AqBdhHPKhgVluGyJA8WWbHUlLT55UTmmCHzn+XaEx6lHs8mELYvLceVi/uDlxURyJ5lAgRN4/ZQPTxwbmDDK1TWluHK5k58DM5z/rz/TpiY9S1F+D+CadJvP1lOZ8iz8dnznKHb8DRs9vL2U7qyNqR+OC3z/5Y6U5091xVb89bbKGbTOlzIBJsAEZo/A8YEonjoxhAHfWRfs0dY/uLEG68pNMFEYPS4ZEdjbEsJLDWe9RcY08kcA16WbzGleBUJ1qQsfWOlGLWcazGgxBGMCvzniQ2vv8IS84RaTERcsr8SuOrbryAguX8QEmMCcENjX5sPehiE1gdf4cvPmSiwvs7Kb+wzIf+3pswHyxjTzdjLv0d50mp5XgfDe+mqcX2ODRUppfZnOOHRXl8TB3pYgDp8aQDR2Lj/amVlcZsdfbObcC7pbGDxgJpDjBMgW4ZnGIbT1pbaZu2VLJZaWskjIdBonEQgdAL4F4N502p1XgUC5FjZWO9LpL9cFQBarr58O47XmfgQiEwNk2C1G3LZzGSoMIebFBJgAE8g5Aq+3j+C5pmH4wykD/OBjWxI7Cdl6QOUcoBl0aBKB0A/g3wFQIifNJVv8U9ogXJsUCNnqhGYqOVyRUjgf7ArjQNsg/ClCbFIEyrWVDnx4Pe8e5PA0cteYgK4JxCDjTyeGcKBtaILn1SgYOm5YUc4iId2FMolAIMOE7yZ/aW4yW8/mlALhkhXluKDOARsfk2uasL6ggtc6Anin04tAOGX8bayodONjG4o1tceVmAATYALzReDd3hCebRxC30h40i58ZGMFVnvsMHDmR83TNIlAOAbgiwAe1dxQFpM1fRDArwFYxnbOU2TD1atLsNDNoTanm7RObwQvnwqiodePSDS1OLBaLbh9x0KUGqfMFT7drfjnTIAJMIGsEDjYMYLnm4YxPC766+jNDbKE99V7sKbCATsndpp2TrxRGfc815yq3vMA/gJA27SNjKmQrR2ErQD+LVUGx6vXVWJjlQ1GVogp5408Wju8Efy5YRBNA1PbFFy+pgoX1p2jwdJZC1yXCTABJpBVAvT99mp7EC83D06WlRAUbXH70nKsKjVhQRFvN081QX9o9ONAc8q0CzkdB4HCK98B4O7xg1viceF9K93w2DkJw3g2lNKzeSiintM1908dKnnn4iJcsaIkqx9uvhkTYAJMYKYEgsKIZxqGcLhjCJFxHlljdxLqSuzYUm1jw/ZJgLf6BH66vw3jgulSbW8yq+Pn052rbO0gUL+uBfADAFXjO7m51oXLlrnh4kxNZ9D0+mPY3xFA80AQ/b6pdw4uWuLGpUvdoO04LkyACTCBfCPQ5VfwXIsfjd1DiMVT5hNQh+S2GrFzaTHWVrng4COHM9McEgY1W2ZTD2mBCeUtALcCoFgIaZVsPlFqAfwTgE+M76HRIGPrAjcuXeyETedhtCIK0DQUwxutgzg5EJoQAGk8u0uWurFzsRtmQzanMq01xpWZABNgAtMS6PALPNs8gubu1EGURhtwWkxYUu7A6nIz1lZwkifyCHm6cQgHWonbhDDLfgC/SPXcnXZCsmikONqXPcljho3jO0eR/+or7dizwg2rUZ+xNofCCp4+MYDegIIe7/TZFy9dVowdC12w6JSXlgXOdZgAE8gfAp1+Bc82B3Cya2BS90caDaWKLrObsL7GhbWVdpTb9PnMoJ2D5xoH8MapYUTjKXMwnABwfSa7ByrnLC8dd3IX4bMAJswo7SRQBK3r13tg1pFJQlQBnmkNoWvAi5aB6YUBzdmuZcXYvsAFq853XLK8fvl2TIAJzDGB7oDAgc4gDjT3pspMeM7dbWYjPA4TNtW5UV9hhVVO+ZCc4x7PT/On/MCBtmEcPe1FJPWxTA+AT6bKg6S1x9kWCNSvRcmQjzdN1slFJVZcsLQca0oLWyXQUn62LYK2nkF0jsQndV8cy8loNOCSJUU4r5aPY7Qucq7HBJhAfhHwRYAmr4JHDp3S1PEimwklViO2LS7FqjITTAXsFUfPjZdaR/Bud0CNITGJzQa9aX4fwFcAZBxSdz4EAk34YgD3JLNLpVwAbpsZpXYDbtxSAwtSh+PUtHJysJKAhGdaw2jpHgAFPwpFUsc1GN/1heUunF/nxPISo26PYXJwOrlLTIAJzAGBmJDRMRTAT9/ogUhhmp/qlm6bCQ6TjB3LPVhdYoSpwHYUmobjOHDKi+Z+P4KRSXMYkZXnnwHcAiBlaket0zVfAoHuSyLhPgBXTtZZ9ZzJYUK504Lr1ntgQX4ndRqMGfHkO10YDETgiwiEo9qFz/ZFbuxY5IbTLME4X7OmdVVxPSbABJjALBCgt+XTvij+1BJGSxelE9BWHBYjrAYJy6tLcNliGyx5bqJAthn7Wr1o6fcjEImnMkYcC+YFADdTCB1ttCavNZ+PGrp3GYBfAtg91UBkWYLDZECZ04zLV5ahzpk/s00Wpge7ozjYOgBfKKKqPkWjGh5lsqDYiveuKMbiYg6CNNMFz9czASaQXwRIJJAb5AOvnUYkpv2likZJdm225BvVletrsbZkPh956XGnneYWb1xNatU77Ec4pkwnDOgG3wPwzwC0q6kpupULtOwAfgzgQwCsUyGUJMAoy7CajVi/oAw7FzjgkLVtz6c3NTOrHYYB7/Yr2N/Uh6GRAMh+hHKfZ2o+Q+ENKMbBIo8bly11ocaRPwJpZiT5aibABPRMoC1kwS/3NarBfyYxxNOMh8QCeYPbTAbsXlOJ+rLctHEbjiTcPY92UiIrIKYIrUcsV5B5wkxsDsbDzAWBQH2ifuwE8CsAdZpnnFwhJAnLK5y4ZGkxapwGSBk/htO567l1FUjoCgg83ziA492pc5xn3nrqKy9eVYUdtRbYcnONz/ZwuT0mwAR0QkAxGPGHkyEcauxIFRVwVinYrWasW+jB9horykzp7U7MZkc6o1b8uXEQje3keJB2oaOE7bNxpJCrAmFsvyipE9kluDJ1w1xSVab6xy4rkmCTz7VbILsGUiOqkJDoP/V/Z4tAUq0lpEaq44AhxYKDLb046ZXQOzCY9mymusBsscBoMCIWiyESmTy7WaprL1hcjEuXFGE0kKJBBgy03cKFCTABJpCjBOjtmAL70PdsWLbgpfYQ3jx5WrNtFn2Xm0wmGE0mRCNRRKOzk6SuptSFTQtLsdwtw2GIn/N4OPv8IKhCjceQ+vmh/hQ0uvEnyj5hxuGOYbzZMQKvP5jpKy1tndOAPw7gd7O5azB2ueTqU4TCY+0HUJG0U5iVDB2yLKOmogxFZgl2KQaHESgqcoKCNI2WYZ8fvkAIEckIf8yA1p5BzV4G6X4OaXGVlJbB7nTis1/+Bi6+4ko89chDuOebX0XAP4JgIJBuk+pRxEVLi7G1rghQEuKIdllMRhlGWYKc6XJMuyd8ARNgAkyAXrKAqCLOHLUSkxDMaBiKqbEOBnzaYr+MsqTvTavNjrqFi3Dr7Z/E1Td8DD+//3t46Of/hcGBfgT8fijxuTFor/KUwW01qGGerSICu92OYhedkidKMBxB/5APMRgQFAZ0DYcw6PNPGxE3jXVCLou0Tf3fSU/AzjSuTbtqrgqE0YHQLgKpo6UAyikUd9ojzMELXEVulJSVg3YN7vvFQ6hZuOScXg709eK3P/sJHn7w5xgeHIDPmzK+tuaRue0WbFhYpho5FhtjgEj94TEbjaoiJt2b6wtD8+C5IhNgAnNGgPzpVAGgJlkab2UlQZFk9IclnOj24bRfwen+4Yz7Qi94TlcRahcsxFXXfQS33fEZyIZzz1j/99GH8OADP0ZXZzv6eroRDoW0nt9n3K8sXEiYhwAMAHgCwH8ASJnTebb7ki/PgWIAf0txE4xGo0uS5UXRSMQ82zDmsr0itxuV1bUwWSzY/YFrccvtn1RV8FSlv6cbv/vlA3j6D4+BREN/b496BDFXZWFlGcwmA+zy5MlS5ure3C4TYAL5RyAkZPgjCrp6B1RD7LkoJAJqahegsqYWl1/1Adzy8U9Bkqc21B7o6ca93/46jrxzGH6fD6fb2xAMprdTMRdj0domvagZDIaAoijtiqJQLAM6ev8pAMqtkLWS0wLh5MCA268Yq2XFWC7icWM8HpOeeuKxLfueffrzHW1tlcGAH10d7eq2UnyOtpQynQmLxYKKqmqUVVSp52RbL9iJj972N+q/pVvobO2ZJx7Dk488hJ7TnWg52YgR38x2FdLtA9dnAkyACWSTQJnHgyXLV8HucOK2T3wK51+8K6Pbt51swAP3/htamk6qL1gdbS3o7e7KuZ0F2iHxVFahum4hbHa7qKisbLhg1xX3f+DajxyigRvMhpCIy30xxXJ6QyUCkjT34SJzSiAc6QwugkVaqUTjCXdHIephlK+AkHYAYsLrdmdbK5558jEcPnhAPa/3jySUYvfpTkSj2XV/tNntqF2wCBVVNerRQVm5Bxe9dze2X7QLrmLaAJmdQmN+8IEfoanhOPwjXrQ0NqC/r3c2z7hmp6PcChNgAkwgTQLVtXVYunKN+lK17T07ccvtn4LBOCsmaGpP/D4vfv/Qr/DK889AiSuqQXh3Rzu6TnfAPzKSZm9nVt1qtaK8shoLFi+BxWKFyWzGzkvfiz3XfAiu4pJUjfdCwqtC4GlZEW0CUCBJAwJK47oKR68kSbO+hTPfAkE63hdeFQfWiLhih4RdQhIfhkBGT9TujlN47aXn8cZr+xD0J3ZiaGdhaKAfXZ0dGPEOoa+3N+NZdRcXw+F0oai4FJXV1ep5mFokCaXlHuy85L3YuG07XO6Mup92v2i8f3r8ERx99zDisRjoSOLkiWPo7ZlRdM20+8EXMAEmwAQyIUBvzMtX16O4pBT0Bn3ezovw/g/dCLvDkUlzaV/jGx7CwVdfxsH9r6jPCCqxeEw9lujr7lKfHfQClukLp9VqAx0vF5eWocxTgaKSUhiTdhPFpaVYv2UbLr78ShSlFgRaxtMgSfKjQom9IyQ5bJDEC/Uex2ktF2qpM28C4e2+8Bo5rmwVkvggIO0GRPJpq6Xb2utEI2F0nmrF0bcPo+d0B5pPNmq/eFzNmtpalJZXqFtAK+vXquovl0rLiWN46bm9OHnieEIcxaLo7uzAqZYmDPT1YWQkOzEacokJ94UJMIH5J2C12VBTtwA1Cxap2+hGU8KEbNmq1bjk8j2oWbgYBsPs7RTMZMT0zEi8bB1Fe2sLWptOZmy/QOKgqroGtQsXY/Hyleqzg3YK5qRIiAqBHwDicN+79p/t2iXN2GBt3gTCkZ7glxRJfC7T3YI5AVxgjUYjEbQ2NeDYO4dVW42hQTKCPVtoe21keFh1C6Kf0fabIhSEAoE5D1BSYKh5OExAlwQsVitkgwyrzQFPRYVqL2CjX/ZzT4Rp53X5ytVYtmoN6hYtgdk6ZdBcXbKctUFLiEBIt6+rsP1spm3Om0B4uzfwOUmILwASuS9ymQcCkXAI3qEhBEZ8GOjvh883rNoyhPwjLBDmYT74lkwg3wjQzoBkMMBmd6CyqgpOZ5Ea14VEApd5IiBJFEDpk+s8tp/MtAfzJhCO9IRWCMR2CiHvhiSuBKSUVhkzHSBfzwSYABNgAkxABwQoVsL9EtBZ77F9fza8HOZNIIxOFgkFSMpWJS5cCrBBlqSrIWFhpmGWdbAIeIhMgAkwASbABIjAm5IkPQpIp+Px2IjD7HhiWamUeTSqcUznXSCM7c/BXn+NSRHrIMklkgJJIF4Bg2GXJHABgCpeD0yACTABJsAE9EYg6cJ4SoF4UVLEPghJNSiLK7EOp9V1eGkJvLOxYzCea04JhPGdO9DZaXeYSuuiENUQiur3YhQwK7K0BAq2QVJ/LYZAbpi/6m3V8niZABNgAkxg9gioBoY4KiAOSgIHFAkt1LgBBiGg+IxmqcMyaD29ZIlEORnmvOS0QEg1eiGEfLwPDiUaKo0YlVIg7jDBdGYccSW+QJalNZCkDRKwidJHC4Gp43LOOWa+ARNgAkyACTABxCVIJwXEYQHpTSjKW7IsnzkSEEIoBqF4IyZ5EFHv4MaqqqyGVs6rHYRMFlNDg7AEPbBL/qDTbDE4ogbJIkUjZwSELJkNUSW6QIK0XJKkdRLESiFhDbtbZkKbr2ECTIAJMAGKryQB3QI4IYQ4Bkk5KoR01CChbywdISDiMSVktRhHjLJtpO0t+GcjXsFczUDe7SDMGIQQ0gHAWAeYBzt8VmExmCWjbIlFpHPTgtGMR8KyySjXSQbDOjrKUBSxSJakxQJYDSA7ob5mPGBugAkwASbABNImIGEAQpwCpEZAHEVcNAKGNskgnVLEuakrBSBkkxKTYkokbo6FywPucHU1wpIkzU3e6bQHk9kF+hMIaXL6jRCGzYAx0N1tDPpMBrvZYIiZDUYDZUVOUeIG2SiFIxVGk2UpoCyVIC8RklgEgUWSJFVDQjEEJoiRNLvF1ZkAE2ACTEADAQnoEEArJKkVQrRBxNuEIrcqkrEViPRM1oRVEUrY7ooH4gNxYzgcsw1Wx96tR/yjef7Q14DsTBUWCOnQ0lhXCEFcpeeee052uS6VbFshmQHJSL4o7amFxWjTttiQxWi3L1SEUm6QRAmltobAYgFlCSCqAKlYCNRKEmwau8PVmAATYAJ5SUACWgT9EpScSPTLkmFAEvGWaExpkYSxpbTW1n+qfeqhVccgYrFGEYlERH19PSU0EqO/5sLyPy9BT9JpFgiFNJspxtLcLKwjlsgSIUUqJEl2ybK0REhSMYQoBeQ6yoEhQakRkGxCoEaSYEobibqKJEqfKiX/SB/BM2uL/lGM+btaW0rUT/tefAETYALTEqAHnxD0HEyU8X9P/rNagf6nPijH1J/2BuMqSEC7IkSXBMkvSVKLgAhCRocMqVMoIiTiojmgSF2K1TZ8QZnEuerTBTxP9fkLep7AF9Jtn20eLC43W1yySSkTQnEIGCskGRRsvUqWDCahxGsFeagKUSNJklGSYIdAmYC6C+KZAxbqDk5CtqhJ05PrXMijf5Rw1rNF0J9HxYqsipmxXi+kb8Z+Ts60PQf95iZzk8DYNLr0GFUfrMm3TwEl8SBO+qqrf1ESD1sx5g11TBtC/TMdY0uY5RS9kjrv1PYAAASISURBVNq3EUlgEMCwAIYB8pmXRiRJ9AohQoDSJSmISrJoj0SFEoOxzSSgbKyzT/MunpuTw72aOwIsEOaOLbc8TwTe7RHOmCGo5tyWAkqJ0SSrBqWKQXgkoSSzxJiqJClhC6JIolISkrpzogjFDEWpHO26LBscAuJsGHCJQoILNlCdp7nN+m0FKK69ek5NG2GQpKASjyeynklyFBBeWTYEkqJg0CBJqluaAjEiRMwnq1rBoCjRWKfRSBo5qsTMpk6qE4/Ywluqpczzz2cdBt9QbwRYIOhtxnm8TIAJMAEmwAQ0EGCBoAESV2ECTIAJMAEmoDcCLBD0NuM8XibABJgAE2ACGgiwQNAAiaswASbABJgAE9AbARYIeptxHi8TYAJMgAkwAQ0EWCBogMRVmAATYAJMgAnojQALBL3NOI+XCTABJsAEmIAGAiwQNEDiKkyACTABJsAE9EaABYLeZpzHywSYABNgAkxAAwEWCBogcRUmwASYABNgAnojwAJBbzPO42UCTIAJMAEmoIEACwQNkLgKE2ACTIAJMAG9EWCBoLcZ5/EyASbABJgAE9BAgAWCBkhchQkwASbABJiA3giwQNDbjPN4mQATYAJMgAloIMACQQMkrsIEmAATYAJMQG8EWCDobcZ5vEyACTABJsAENBBggaABEldhAkyACTABJqA3AiwQ9DbjPF4mwASYABNgAhoIsEDQAImrMAEmwASYABPQGwEWCHqbcR4vE2ACTIAJMAENBFggaIDEVZgAE2ACTIAJ6I0ACwS9zTiPlwkwASbABJiABgIsEDRA4ipMgAkwASbABPRGgAWC3macx8sEmAATYAJMQAMBFggaIHEVJsAEmAATYAJ6I8ACQW8zzuNlAkyACTABJqCBAAsEDZC4ChNgAkyACTABvRFggaC3GefxMgEmwASYABPQQIAFggZIXIUJMAEmwASYgN4IsEDQ24zzeJkAE2ACTIAJaCDAAkEDJK7CBJgAE2ACTEBvBFgg6G3GebxMgAkwASbABDQQYIGgARJXYQJMgAkwASagNwIsEPQ24zxeJsAEmAATYAIaCLBA0ACJqzABJsAEmAAT0BsBFgh6m3EeLxNgAkyACTABDQRYIGiAxFWYABNgAkyACeiNAAsEvc04j5cJMAEmwASYgAYCLBA0QOIqTIAJMAEmwAT0RoAFgt5mnMfLBJgAE2ACTEADARYIGiBxFSbABJgAE2ACeiPAAkFvM87jZQJMgAkwASaggQALBA2QuAoTYAJMgAkwAb0RYIGgtxnn8TIBJsAEmAAT0ECABYIGSFyFCTABJsAEmIDeCLBA0NuM83iZABNgAkyACWggwAJBAySuwgSYABNgAkxAbwRYIOhtxnm8TIAJMAEmwAQ0EGCBoAESV2ECTIAJMAEmoDcCLBD0NuM8XibABJgAE2ACGgiwQNAAiaswASbABJgAE9AbARYIeptxHi8TYAJMgAkwAQ0EWCBogMRVmAATYAJMgAnojQALBL3NOI+XCTABJsAEmIAGAiwQNEDiKkyACTABJsAE9Ebg/wOCvuRB5QxPogAAAABJRU5ErkJggg==;fontStyle=0;fontFamily=Tahoma;labelPosition=center;align=center;" parent="1" vertex="1">
                    <mxGeometry x="49.41346850108617" y="90" width="59.935553946415645" height="56.480811006517015" as="geometry"/>
                </mxCell>
                <mxCell id="5dTdVRmjxpNJlTzWFRYr-10" value="Dev" style="rounded=1;whiteSpace=wrap;html=1;fontSize=14;fillColor=#f5f5f5;strokeColor=#666666;fontStyle=0;fontFamily=Tahoma;sketch=0;fontColor=#333333;verticalAlign=top;" parent="1" vertex="1">
                    <mxGeometry x="109.35" y="210" width="960.65" height="470" as="geometry"/>
                </mxCell>
                <mxCell id="5juz5UtwHoaI4CSPmpxq-3" style="rounded=0;orthogonalLoop=1;jettySize=auto;html=1;entryX=0;entryY=0.5;entryDx=0;entryDy=0;strokeWidth=1;startArrow=classic;startFill=1;endArrow=none;endFill=0;dashed=1;exitX=1;exitY=0.5;exitDx=0;exitDy=0;" parent="1" source="5juz5UtwHoaI4CSPmpxq-1" target="5juz5UtwHoaI4CSPmpxq-2" edge="1">
                    <mxGeometry relative="1" as="geometry"/>
                </mxCell>
                <mxCell id="5juz5UtwHoaI4CSPmpxq-1" value="Base Component" style="rounded=0;whiteSpace=wrap;html=1;fillColor=#ffe6cc;strokeColor=#d79b00;" parent="1" vertex="1">
                    <mxGeometry x="170" y="270" width="120" height="340" as="geometry"/>
                </mxCell>
                <mxCell id="5juz5UtwHoaI4CSPmpxq-2" value="Secrets Component" style="rounded=0;whiteSpace=wrap;html=1;fillColor=#f8cecc;strokeColor=#b85450;" parent="1" vertex="1">
                    <mxGeometry x="529.6700000000001" y="280" width="120" height="60" as="geometry"/>
                </mxCell>
                <mxCell id="5juz5UtwHoaI4CSPmpxq-5" style="edgeStyle=orthogonalEdgeStyle;rounded=0;orthogonalLoop=1;jettySize=auto;html=1;startArrow=none;startFill=0;endArrow=classic;endFill=1;strokeWidth=1;dashed=1;" parent="1" source="5juz5UtwHoaI4CSPmpxq-4" target="5juz5UtwHoaI4CSPmpxq-1" edge="1">
                    <mxGeometry relative="1" as="geometry"/>
                </mxCell>
                <mxCell id="5juz5UtwHoaI4CSPmpxq-6" style="edgeStyle=orthogonalEdgeStyle;rounded=0;orthogonalLoop=1;jettySize=auto;html=1;entryX=0.5;entryY=1;entryDx=0;entryDy=0;startArrow=none;startFill=0;endArrow=classic;endFill=1;strokeWidth=1;dashed=1;" parent="1" source="5juz5UtwHoaI4CSPmpxq-4" target="5juz5UtwHoaI4CSPmpxq-2" edge="1">
                    <mxGeometry relative="1" as="geometry"/>
                </mxCell>
                <mxCell id="5juz5UtwHoaI4CSPmpxq-4" value="Network Component" style="rounded=0;whiteSpace=wrap;html=1;fillColor=#dae8fc;strokeColor=#6c8ebf;" parent="1" vertex="1">
                    <mxGeometry x="529.6700000000001" y="410" width="120" height="60" as="geometry"/>
                </mxCell>
                <mxCell id="5juz5UtwHoaI4CSPmpxq-8" style="rounded=0;orthogonalLoop=1;jettySize=auto;html=1;startArrow=none;startFill=0;endArrow=classic;endFill=1;strokeWidth=1;dashed=1;fillColor=#f8cecc;exitX=0;exitY=0.5;exitDx=0;exitDy=0;" parent="1" source="5juz5UtwHoaI4CSPmpxq-7" target="5juz5UtwHoaI4CSPmpxq-2" edge="1">
                    <mxGeometry relative="1" as="geometry"/>
                </mxCell>
                <mxCell id="5juz5UtwHoaI4CSPmpxq-9" style="rounded=0;orthogonalLoop=1;jettySize=auto;html=1;entryX=1;entryY=0.5;entryDx=0;entryDy=0;startArrow=none;startFill=0;endArrow=classic;endFill=1;strokeWidth=1;exitX=0;exitY=0.5;exitDx=0;exitDy=0;dashed=1;fillColor=#dae8fc;" parent="1" source="5juz5UtwHoaI4CSPmpxq-7" target="5juz5UtwHoaI4CSPmpxq-4" edge="1">
                    <mxGeometry relative="1" as="geometry"/>
                </mxCell>
                <mxCell id="5juz5UtwHoaI4CSPmpxq-11" style="edgeStyle=none;rounded=0;orthogonalLoop=1;jettySize=auto;html=1;exitX=0;exitY=0.75;exitDx=0;exitDy=0;entryX=1;entryY=0.75;entryDx=0;entryDy=0;dashed=1;startArrow=none;startFill=0;endArrow=classic;endFill=1;strokeColor=#000000;strokeWidth=1;" parent="1" source="5juz5UtwHoaI4CSPmpxq-7" target="5juz5UtwHoaI4CSPmpxq-1" edge="1">
                    <mxGeometry relative="1" as="geometry"/>
                </mxCell>
                <mxCell id="5juz5UtwHoaI4CSPmpxq-7" value="Data Orchestration&lt;br&gt;Component" style="rounded=0;whiteSpace=wrap;html=1;fillColor=#d5e8d4;strokeColor=#82b366;" parent="1" vertex="1">
                    <mxGeometry x="890" y="270" width="120" height="340" as="geometry"/>
                </mxCell>
                <mxCell id="5dTdVRmjxpNJlTzWFRYr-38" value="Legend" style="rounded=0;whiteSpace=wrap;html=1;sketch=0;fontFamily=Tahoma;fontSize=13;verticalAlign=top;fontStyle=1" parent="1" vertex="1">
                    <mxGeometry x="1103.72" y="140" width="186.28" height="100" as="geometry"/>
                </mxCell>
                <mxCell id="5dTdVRmjxpNJlTzWFRYr-39" style="edgeStyle=none;rounded=0;orthogonalLoop=1;jettySize=auto;html=1;fontFamily=Tahoma;fontSize=30;startArrow=classic;startFill=1;endArrow=none;endFill=0;fillColor=#f8cecc;strokeWidth=1;dashed=1;" parent="1" edge="1">
                    <mxGeometry x="1103.721940622737" y="140" as="geometry">
                        <mxPoint x="1113.1354091238231" y="200" as="sourcePoint"/>
                        <mxPoint x="1150.7892831281679" y="200" as="targetPoint"/>
                    </mxGeometry>
                </mxCell>
                <mxCell id="5dTdVRmjxpNJlTzWFRYr-40" value="Terraform Outputs" style="text;html=1;resizable=0;autosize=1;align=left;verticalAlign=middle;points=[];fillColor=none;strokeColor=none;rounded=0;sketch=1;fontFamily=Tahoma;fontSize=13;" parent="1" vertex="1">
                    <mxGeometry x="1169.6162201303403" y="190" width="120" height="20" as="geometry"/>
                </mxCell>
            </root>
        </mxGraphModel>
    </diagram>
</mxfile>